<?xml version="1.0" encoding="utf-8"?>
<!-- Generator: Adobe Illustrator 24.2.1, SVG Export Plug-In . SVG Version: 6.00 Build 0)  -->
<svg version="1.1" id="Layer_1" xmlns="http://www.w3.org/2000/svg" xmlns:xlink="http://www.w3.org/1999/xlink" x="0px" y="0px"
	 viewBox="0 0 841.89 595.28" style="enable-background:new 0 0 841.89 595.28;" xml:space="preserve">
<style type="text/css">
	.st0{fill:none;stroke:#CCCCCB;stroke-width:0.5;stroke-miterlimit:10;}
	.st1{fill:#FFFFFF;stroke:#000000;stroke-miterlimit:10;}
	.st2{fill:#CCCCCB;}
	.st3{fill:#884861;}
	.st4{fill:#A5597C;}
	.st5{fill:#F295BF;}
	.st6{fill:#4EA198;}
	.st7{fill:#78CCC6;}
	.st8{fill:#A8DCDD;}
	.st9{fill:#6A8A3B;}
	.st10{fill:#A9D15B;}
	.st11{fill:none;stroke:#000000;stroke-miterlimit:10;}
	.st12{fill:#E8B167;}
	.st13{fill:#DC7E31;}
	.st14{fill:#AD832D;}
	.st15{fill:#FFDC70;}
	.st16{fill:none;stroke:#000000;stroke-width:0.25;stroke-miterlimit:10;}
	.st17{fill:#4258A7;}
	.st18{fill:#ADA9D4;}
	.st19{fill:#999999;stroke:#FFFFFF;stroke-width:0.5;stroke-miterlimit:10;}
	.st20{fill:#E81E25;stroke:#FFFFFF;stroke-width:0.5;stroke-miterlimit:10;}
	.st21{fill:none;stroke:#000000;stroke-width:0.5;stroke-miterlimit:10;}
	.st22{fill:none;stroke:#000000;stroke-width:2;stroke-miterlimit:10;}
	.st23{fill:#878787;}
	.st24{fill:#A3A3A3;}
	.st25{fill:#E8E8E8;}
	.st26{stroke:#FFFFFF;stroke-width:0.5;stroke-miterlimit:10;}
	.st27{fill:#17737E;}
	.st28{fill:#993435;}
	.st29{fill:#EF3C39;}
	.st30{fill:#F26667;}
</style>
<rect x="-1445.94" y="639.38" class="st0" width="80" height="80"/>
<path class="st1" d="M-1405.94,719.38"/>
<g>
	<polygon class="st2" points="-1405.94,719.38 -1445.94,699.38 -1405.94,679.38 -1365.94,699.38 	"/>
	<g>
		<polygon class="st3" points="-1405.94,684.47 -1405.94,712.6 -1377.82,698.55 -1377.82,670.41 		"/>
	</g>
	<polygon class="st4" points="-1405.94,684.47 -1405.94,712.6 -1434.06,698.55 -1434.06,670.41 	"/>
	<polygon class="st5" points="-1405.94,684.47 -1434.06,670.41 -1405.94,656.35 -1377.82,670.41 	"/>
</g>
<g>
	<polygon class="st2" points="-1315.66,719.38 -1355.66,699.38 -1315.66,679.38 -1275.66,699.38 	"/>
	<g>
		<polygon class="st6" points="-1315.66,699.29 -1315.66,712.58 -1287.59,698.55 -1287.59,685.26 		"/>
	</g>
	<polygon class="st7" points="-1315.66,699.29 -1315.66,712.58 -1343.73,698.55 -1343.73,685.26 	"/>
	<polygon class="st8" points="-1315.66,699.29 -1343.73,685.26 -1315.66,671.22 -1287.59,685.26 	"/>
</g>
<rect x="-1445.94" y="743.99" class="st0" width="80" height="80"/>
<g>
	<polygon class="st2" points="-1315.66,823.99 -1355.66,803.99 -1315.66,783.99 -1275.66,803.99 	"/>
	<g>
		<polygon class="st9" points="-1315.66,817.62 -1315.66,780.68 -1287.59,803.58 		"/>
	</g>
	<g>
		<polygon class="st10" points="-1315.66,780.68 -1315.66,817.62 -1343.73,803.58 		"/>
	</g>
</g>
<rect x="-1355.75" y="744.12" class="st0" width="79.87" height="79.87"/>
<rect x="-1355.75" y="639.51" class="st0" width="79.87" height="79.87"/>
<rect x="-1265.68" y="743.99" class="st0" width="80" height="80"/>
<g>
	<polygon class="st2" points="-1225.67,823.99 -1265.67,803.99 -1225.67,783.99 -1185.67,803.99 	"/>
	<path class="st11" d="M-1225.68,789.1"/>
	<path class="st12" d="M-1225.68,801.41c-13.8,0-24.99-5.59-24.99-12.5c0,13.8,11.19,24.99,24.99,24.99s24.99-11.19,24.99-24.99
		C-1200.69,795.81-1211.87,801.41-1225.68,801.41z"/>
	<path class="st13" d="M-1225.68,776.42c13.8,0,24.99,5.59,24.99,12.5c0-13.8-11.19-24.99-24.99-24.99s-24.99,11.19-24.99,24.99
		C-1250.67,782.01-1239.48,776.42-1225.68,776.42z"/>
	<g>
		<ellipse class="st13" cx="-1225.68" cy="788.91" rx="24.99" ry="12.5"/>
	</g>
</g>
<g>
	<polygon class="st2" points="-1405.94,823.99 -1445.94,803.99 -1405.94,783.99 -1365.94,803.99 	"/>
	<g>
		<polygon class="st14" points="-1405.94,817.64 -1405.94,763.21 -1377.82,803.58 		"/>
	</g>
	<g>
		<polygon class="st15" points="-1405.94,763.21 -1405.94,817.64 -1434.06,803.58 		"/>
	</g>
</g>
<g>
	<line class="st16" x1="-1582.37" y1="877.74" x2="-1582.37" y2="1157.74"/>
	<line class="st16" x1="-1502.37" y1="877.74" x2="-1502.37" y2="1157.74"/>
	<line class="st16" x1="-1422.37" y1="877.74" x2="-1422.37" y2="1157.74"/>
	<line class="st16" x1="-1342.37" y1="877.74" x2="-1342.37" y2="1157.74"/>
	<line class="st16" x1="-1262.37" y1="877.74" x2="-1262.37" y2="1157.74"/>
	<line class="st16" x1="-1182.37" y1="877.74" x2="-1182.37" y2="1157.74"/>
	<line class="st16" x1="-1102.37" y1="877.74" x2="-1102.37" y2="1157.74"/>
	<line class="st16" x1="-1022.37" y1="877.74" x2="-1022.37" y2="1157.74"/>
	<line class="st16" x1="-1582.37" y1="957.74" x2="-1022.37" y2="957.74"/>
	<line class="st16" x1="-1582.37" y1="997.74" x2="-1022.37" y2="997.74"/>
	<line class="st16" x1="-1582.37" y1="1077.74" x2="-1022.37" y2="1077.74"/>
	<line class="st16" x1="-1582.37" y1="917.74" x2="-1022.37" y2="917.74"/>
	<line class="st16" x1="-1582.37" y1="1037.74" x2="-1022.37" y2="1037.74"/>
	<line class="st16" x1="-1582.37" y1="1117.74" x2="-1022.37" y2="1117.74"/>
	<line class="st16" x1="-1582.37" y1="1157.74" x2="-1022.37" y2="1157.74"/>
	<line class="st16" x1="-1582.37" y1="877.74" x2="-1022.37" y2="877.74"/>
	<text transform="matrix(1 0 0 1 -1595.3824 881.2618)" style="font-family:'MyriadPro-Regular'; font-size:12px;">0</text>
	<text transform="matrix(1 0 0 1 -1595.3824 921.2618)" style="font-family:'MyriadPro-Regular'; font-size:12px;">1</text>
	<text transform="matrix(1 0 0 1 -1595.3824 961.2618)" style="font-family:'MyriadPro-Regular'; font-size:12px;">2</text>
	<text transform="matrix(1 0 0 1 -1595.3824 1001.2618)" style="font-family:'MyriadPro-Regular'; font-size:12px;">3</text>
	<text transform="matrix(1 0 0 1 -1595.3824 1041.2618)" style="font-family:'MyriadPro-Regular'; font-size:12px;">4</text>
	<text transform="matrix(1 0 0 1 -1595.3824 1081.2618)" style="font-family:'MyriadPro-Regular'; font-size:12px;">5</text>
	<text transform="matrix(1 0 0 1 -1595.3824 1121.2618)" style="font-family:'MyriadPro-Regular'; font-size:12px;">6</text>
	<text transform="matrix(1 0 0 1 -1585.3656 871.0325)" style="font-family:'MyriadPro-Regular'; font-size:12px;">0</text>
	<text transform="matrix(1 0 0 1 -1505.3656 871.0325)" style="font-family:'MyriadPro-Regular'; font-size:12px;">1</text>
	<text transform="matrix(1 0 0 1 -1425.3656 871.0325)" style="font-family:'MyriadPro-Regular'; font-size:12px;">2</text>
	<text transform="matrix(1 0 0 1 -1345.3656 871.0325)" style="font-family:'MyriadPro-Regular'; font-size:12px;">3</text>
	<text transform="matrix(1 0 0 1 -1265.3656 871.0325)" style="font-family:'MyriadPro-Regular'; font-size:12px;">4</text>
	<text transform="matrix(1 0 0 1 -1185.3656 871.0325)" style="font-family:'MyriadPro-Regular'; font-size:12px;">5</text>
	<text transform="matrix(1 0 0 1 -1105.3656 871.0325)" style="font-family:'MyriadPro-Regular'; font-size:12px;">6</text>
</g>
<g>
	<rect x="-1265.38" y="639.44" class="st0" width="80" height="80"/>
	<g>
		<polygon class="st2" points="-1225.37,719.44 -1265.37,699.44 -1225.37,679.44 -1185.37,699.44 		"/>
		<path class="st11" d="M-1225.38,684.55"/>
		<path class="st17" d="M-1225.38,696.86c-13.8,0-24.99-5.59-24.99-12.5c0,13.8,11.19,24.99,24.99,24.99s24.99-11.19,24.99-24.99
			C-1200.38,691.26-1211.57,696.86-1225.38,696.86z"/>
		<g>
			<ellipse class="st18" cx="-1225.38" cy="684.36" rx="24.99" ry="12.5"/>
		</g>
	</g>
</g>
<g>
	<polygon class="st19" points="-1542.37,917.74 -1582.37,897.74 -1542.37,877.74 -1502.37,897.74 	"/>
	<polygon class="st19" points="-1462.37,917.74 -1502.37,897.74 -1462.37,877.74 -1422.37,897.74 	"/>
	<polygon class="st19" points="-1382.37,917.74 -1422.37,897.74 -1382.37,877.74 -1342.37,897.74 	"/>
	<polygon class="st19" points="-1302.37,917.74 -1342.37,897.74 -1302.37,877.74 -1262.37,897.74 	"/>
	<polygon class="st19" points="-1222.37,917.74 -1262.37,897.74 -1222.37,877.74 -1182.37,897.74 	"/>
	<polygon class="st19" points="-1142.37,917.74 -1182.37,897.74 -1142.37,877.74 -1102.37,897.74 	"/>
	<polygon class="st19" points="-1502.37,937.74 -1542.37,917.74 -1502.37,897.74 -1462.37,917.74 	"/>
	<polygon class="st19" points="-1422.37,937.74 -1462.37,917.74 -1422.37,897.74 -1382.37,917.74 	"/>
	<polygon class="st19" points="-1342.37,937.74 -1382.37,917.74 -1342.37,897.74 -1302.37,917.74 	"/>
	<polygon class="st19" points="-1262.37,937.74 -1302.37,917.74 -1262.37,897.74 -1222.37,917.74 	"/>
	<polygon class="st19" points="-1182.37,937.74 -1222.37,917.74 -1182.37,897.74 -1142.37,917.74 	"/>
	<polygon class="st19" points="-1102.37,937.74 -1142.37,917.74 -1102.37,897.74 -1062.37,917.74 	"/>
	<polygon class="st19" points="-1542.37,957.74 -1582.37,937.74 -1542.37,917.74 -1502.37,937.74 	"/>
	<polygon class="st19" points="-1462.37,957.74 -1502.37,937.74 -1462.37,917.74 -1422.37,937.74 	"/>
	<polygon class="st19" points="-1382.37,957.74 -1422.37,937.74 -1382.37,917.74 -1342.37,937.74 	"/>
	<polygon class="st20" points="-1302.37,957.74 -1342.37,937.74 -1302.37,917.74 -1262.37,937.74 	"/>
	<polygon class="st19" points="-1222.37,957.74 -1262.37,937.74 -1222.37,917.74 -1182.37,937.74 	"/>
	<polygon class="st19" points="-1142.37,957.74 -1182.37,937.74 -1142.37,917.74 -1102.37,937.74 	"/>
	<polygon class="st19" points="-1502.37,977.74 -1542.37,957.74 -1502.37,937.74 -1462.37,957.74 	"/>
	<polygon class="st19" points="-1422.37,977.74 -1462.37,957.74 -1422.37,937.74 -1382.37,957.74 	"/>
	<polygon class="st19" points="-1342.37,977.74 -1382.37,957.74 -1342.37,937.74 -1302.37,957.74 	"/>
	<polygon class="st19" points="-1262.37,977.74 -1302.37,957.74 -1262.37,937.74 -1222.37,957.74 	"/>
	<polygon class="st19" points="-1182.37,977.74 -1222.37,957.74 -1182.37,937.74 -1142.37,957.74 	"/>
	<polygon class="st19" points="-1102.37,977.74 -1142.37,957.74 -1102.37,937.74 -1062.37,957.74 	"/>
	<polygon class="st19" points="-1542.37,997.74 -1582.37,977.74 -1542.37,957.74 -1502.37,977.74 	"/>
	<polygon class="st19" points="-1462.37,997.74 -1502.37,977.74 -1462.37,957.74 -1422.37,977.74 	"/>
	<polygon class="st20" points="-1382.37,997.74 -1422.37,977.74 -1382.37,957.74 -1342.37,977.74 	"/>
	<polygon class="st19" points="-1302.37,997.74 -1342.37,977.74 -1302.37,957.74 -1262.37,977.74 	"/>
	<polygon class="st20" points="-1222.37,997.74 -1262.37,977.74 -1222.37,957.74 -1182.37,977.74 	"/>
	<polygon class="st19" points="-1142.37,997.74 -1182.37,977.74 -1142.37,957.74 -1102.37,977.74 	"/>
	<polygon class="st19" points="-1502.37,1017.74 -1542.37,997.74 -1502.37,977.74 -1462.37,997.74 	"/>
	<polygon class="st19" points="-1422.37,1017.74 -1462.37,997.74 -1422.37,977.74 -1382.37,997.74 	"/>
	<polygon class="st19" points="-1342.37,1017.74 -1382.37,997.74 -1342.37,977.74 -1302.37,997.74 	"/>
	<polygon class="st19" points="-1262.37,1017.74 -1302.37,997.74 -1262.37,977.74 -1222.37,997.74 	"/>
	<polygon class="st19" points="-1182.37,1017.74 -1222.37,997.74 -1182.37,977.74 -1142.37,997.74 	"/>
	<polygon class="st19" points="-1102.37,1017.74 -1142.37,997.74 -1102.37,977.74 -1062.37,997.74 	"/>
	<polygon class="st19" points="-1542.37,1037.74 -1582.37,1017.74 -1542.37,997.74 -1502.37,1017.74 	"/>
	<polygon class="st20" points="-1462.37,1037.74 -1502.37,1017.74 -1462.37,997.74 -1422.37,1017.74 	"/>
	<polygon class="st19" points="-1382.37,1037.74 -1422.37,1017.74 -1382.37,997.74 -1342.37,1017.74 	"/>
	<polygon class="st20" points="-1302.37,1037.74 -1342.37,1017.74 -1302.37,997.74 -1262.37,1017.74 	"/>
	<polygon class="st19" points="-1222.37,1037.74 -1262.37,1017.74 -1222.37,997.74 -1182.37,1017.74 	"/>
	<polygon class="st20" points="-1142.37,1037.74 -1182.37,1017.74 -1142.37,997.74 -1102.37,1017.74 	"/>
	<polygon class="st19" points="-1502.37,1057.74 -1542.37,1037.74 -1502.37,1017.74 -1462.37,1037.74 	"/>
	<polygon class="st19" points="-1422.37,1057.74 -1462.37,1037.74 -1422.37,1017.74 -1382.37,1037.74 	"/>
	<polygon class="st19" points="-1342.37,1057.74 -1382.37,1037.74 -1342.37,1017.74 -1302.37,1037.74 	"/>
	<polygon class="st19" points="-1262.37,1057.74 -1302.37,1037.74 -1262.37,1017.74 -1222.37,1037.74 	"/>
	<polygon class="st19" points="-1182.37,1057.74 -1222.37,1037.74 -1182.37,1017.74 -1142.37,1037.74 	"/>
	<polygon class="st19" points="-1102.37,1057.74 -1142.37,1037.74 -1102.37,1017.74 -1062.37,1037.74 	"/>
	<polygon class="st19" points="-1542.37,1077.74 -1582.37,1057.74 -1542.37,1037.74 -1502.37,1057.74 	"/>
	<polygon class="st19" points="-1462.37,1077.74 -1502.37,1057.74 -1462.37,1037.74 -1422.37,1057.74 	"/>
	<polygon class="st20" points="-1382.37,1077.74 -1422.37,1057.74 -1382.37,1037.74 -1342.37,1057.74 	"/>
	<polygon class="st19" points="-1302.37,1077.74 -1342.37,1057.74 -1302.37,1037.74 -1262.37,1057.74 	"/>
	<polygon class="st20" points="-1222.37,1077.74 -1262.37,1057.74 -1222.37,1037.74 -1182.37,1057.74 	"/>
	<polygon class="st19" points="-1142.37,1077.74 -1182.37,1057.74 -1142.37,1037.74 -1102.37,1057.74 	"/>
	<polygon class="st19" points="-1502.37,1097.74 -1542.37,1077.74 -1502.37,1057.74 -1462.37,1077.74 	"/>
	<polygon class="st19" points="-1422.37,1097.74 -1462.37,1077.74 -1422.37,1057.74 -1382.37,1077.74 	"/>
	<polygon class="st19" points="-1342.37,1097.74 -1382.37,1077.74 -1342.37,1057.74 -1302.37,1077.74 	"/>
	<polygon class="st19" points="-1262.37,1097.74 -1302.37,1077.74 -1262.37,1057.74 -1222.37,1077.74 	"/>
	<polygon class="st19" points="-1182.37,1097.74 -1222.37,1077.74 -1182.37,1057.74 -1142.37,1077.74 	"/>
	<polygon class="st19" points="-1102.37,1097.74 -1142.37,1077.74 -1102.37,1057.74 -1062.37,1077.74 	"/>
	<polygon class="st19" points="-1542.37,1117.74 -1582.37,1097.74 -1542.37,1077.74 -1502.37,1097.74 	"/>
	<polygon class="st19" points="-1462.37,1117.74 -1502.37,1097.74 -1462.37,1077.74 -1422.37,1097.74 	"/>
	<polygon class="st19" points="-1382.37,1117.74 -1422.37,1097.74 -1382.37,1077.74 -1342.37,1097.74 	"/>
	<polygon class="st20" points="-1302.37,1117.74 -1342.37,1097.74 -1302.37,1077.74 -1262.37,1097.74 	"/>
	<polygon class="st19" points="-1222.37,1117.74 -1262.37,1097.74 -1222.37,1077.74 -1182.37,1097.74 	"/>
	<polygon class="st19" points="-1142.37,1117.74 -1182.37,1097.74 -1142.37,1077.74 -1102.37,1097.74 	"/>
	<polygon class="st19" points="-1502.37,1137.74 -1542.37,1117.74 -1502.37,1097.74 -1462.37,1117.74 	"/>
	<polygon class="st19" points="-1422.37,1137.74 -1462.37,1117.74 -1422.37,1097.74 -1382.37,1117.74 	"/>
	<polygon class="st19" points="-1342.37,1137.74 -1382.37,1117.74 -1342.37,1097.74 -1302.37,1117.74 	"/>
	<polygon class="st19" points="-1262.37,1137.74 -1302.37,1117.74 -1262.37,1097.74 -1222.37,1117.74 	"/>
	<polygon class="st19" points="-1182.37,1137.74 -1222.37,1117.74 -1182.37,1097.74 -1142.37,1117.74 	"/>
	<polygon class="st19" points="-1102.37,1137.74 -1142.37,1117.74 -1102.37,1097.74 -1062.37,1117.74 	"/>
	<polygon class="st19" points="-1542.37,1157.74 -1582.37,1137.74 -1542.37,1117.74 -1502.37,1137.74 	"/>
	<polygon class="st19" points="-1462.37,1157.74 -1502.37,1137.74 -1462.37,1117.74 -1422.37,1137.74 	"/>
	<polygon class="st19" points="-1382.37,1157.74 -1422.37,1137.74 -1382.37,1117.74 -1342.37,1137.74 	"/>
	<polygon class="st19" points="-1302.37,1157.74 -1342.37,1137.74 -1302.37,1117.74 -1262.37,1137.74 	"/>
	<polygon class="st19" points="-1222.37,1157.74 -1262.37,1137.74 -1222.37,1117.74 -1182.37,1137.74 	"/>
	<polygon class="st19" points="-1142.37,1157.74 -1182.37,1137.74 -1142.37,1117.74 -1102.37,1137.74 	"/>
	<polygon class="st19" points="-1062.37,917.74 -1102.37,897.74 -1062.37,877.74 -1022.37,897.74 	"/>
	<polygon class="st19" points="-1062.37,957.74 -1102.37,937.74 -1062.37,917.74 -1022.37,937.74 	"/>
	<polygon class="st19" points="-1062.37,997.74 -1102.37,977.74 -1062.37,957.74 -1022.37,977.74 	"/>
	<polygon class="st19" points="-1062.37,1037.74 -1102.37,1017.74 -1062.37,997.74 -1022.37,1017.74 	"/>
	<polygon class="st19" points="-1062.37,1077.74 -1102.37,1057.74 -1062.37,1037.74 -1022.37,1057.74 	"/>
	<polygon class="st19" points="-1062.37,1117.74 -1102.37,1097.74 -1062.37,1077.74 -1022.37,1097.74 	"/>
	<polygon class="st19" points="-1062.37,1157.74 -1102.37,1137.74 -1062.37,1117.74 -1022.37,1137.74 	"/>
</g>
<rect x="-1589.02" y="124.62" class="st1" width="110.4" height="73.28"/>
<text transform="matrix(1 0 0 1 -1589.0245 119.1727)" style="font-family:'MyriadPro-Semibold'; font-size:12px;">user</text>
<rect x="-1581.6" y="131.91" style="fill:none;" width="93.07" height="60.48"/>
<text transform="matrix(1 0 0 1 -1581.5988 141.9549)"><tspan x="0" y="0" style="font-family:'MyriadPro-Regular'; font-size:12px;">id: int</tspan><tspan x="0" y="14.4" style="font-family:'MyriadPro-Regular'; font-size:12px;">name: string</tspan><tspan x="0" y="28.8" style="font-family:'MyriadPro-Regular'; font-size:12px;">email: string</tspan><tspan x="0" y="43.2" style="font-family:'MyriadPro-Regular'; font-size:12px;">password: string</tspan></text>
<rect x="-1394.22" y="134.82" class="st1" width="110.4" height="78.04"/>
<text transform="matrix(1 0 0 1 -1394.2224 129.3734)" style="font-family:'MyriadPro-Semibold'; font-size:12px;">scoreList</text>
<rect x="-1386.8" y="141.11" style="fill:none;" width="93.07" height="42"/>
<text transform="matrix(1 0 0 1 -1386.7968 151.1555)"><tspan x="0" y="0" style="font-family:'MyriadPro-Regular'; font-size:12px;">id: int</tspan><tspan x="0" y="14.4" style="font-family:'MyriadPro-Regular'; font-size:12px;">score: int</tspan><tspan x="0" y="28.8" style="font-family:'MyriadPro-Regular'; font-size:12px;">date: date</tspan></text>
<rect x="-1386.8" y="193.2" style="fill:none;" width="93.07" height="30.17"/>
<text transform="matrix(1 0 0 1 -1386.7964 203.2393)" style="font-family:'MyriadPro-Regular'; font-size:12px;">userid: int</text>
<line class="st11" x1="-1394.22" y1="187.23" x2="-1283.83" y2="187.23"/>
<polyline class="st1" points="-1394.22,199.47 -1444.15,199.47 -1444.15,134.82 -1478.63,134.82 "/>
<path class="st11" d="M-1397.22,201.15"/>
<text transform="matrix(1 0 0 1 -1473.7417 131.8778)" style="font-family:'MyriadPro-Semibold'; font-size:9px;">1</text>
<text transform="matrix(1 0 0 1 -1413.1271 194.6257)" style="font-family:'MyriadPro-Semibold'; font-size:9px;">0..N</text>
<text transform="matrix(1 0 0 1 -1581.5989 214.365)" style="font-family:'MyriadPro-Semibold'; font-size:10.6458px;">user: hasMany scores</text>
<text transform="matrix(1 0 0 1 -1390.3196 227.9706)" style="font-family:'MyriadPro-Semibold'; font-size:10.6458px;">scores: belongsTo user</text>
<rect x="-823.07" y="61.56" class="st11" width="376.21" height="211.62"/>
<rect x="-823.07" y="61.56" class="st11" width="376.21" height="15.31"/>
<text transform="matrix(1 0 0 1 -817.2665 70.9778)" style="font-family:'MyriadPro-Regular'; font-size:7.9651px;">Logo</text>
<text transform="matrix(1 0 0 1 -531.9863 70.9778)" style="font-family:'MyriadPro-Regular'; font-size:6.1333px;">Login | Signup | Hi, $userName</text>
<rect x="-823.07" y="332.21" class="st11" width="376.21" height="211.62"/>
<rect x="-823.07" y="332.21" class="st11" width="376.21" height="15.31"/>
<text transform="matrix(1 0 0 1 -817.2665 341.6273)" style="font-family:'MyriadPro-Regular'; font-size:7.9651px;">Logo</text>
<text transform="matrix(1 0 0 1 -531.9863 341.6273)" style="font-family:'MyriadPro-Regular'; font-size:6.1333px;">Login | Signup | Hi, $userName</text>
<path class="st1" d="M-238.66,153.54"/>
<g>
	<polygon class="st16" points="-323.99,139.11 -338.21,132 -323.99,124.89 -309.77,132 	"/>
	<polygon class="st16" points="-295.54,139.11 -309.77,132 -295.54,124.89 -281.32,132 	"/>
	<polygon class="st16" points="-267.1,139.11 -281.32,132 -267.1,124.89 -252.87,132 	"/>
	<polygon class="st16" points="-238.65,139.11 -252.87,132 -238.65,124.89 -224.43,132 	"/>
	<polygon class="st16" points="-210.2,139.11 -224.43,132 -210.2,124.89 -195.98,132 	"/>
	<polygon class="st16" points="-181.76,139.11 -195.98,132 -181.76,124.89 -167.53,132 	"/>
	<polygon class="st16" points="-309.77,146.23 -323.99,139.11 -309.77,132 -295.54,139.11 	"/>
	<polygon class="st16" points="-281.32,146.23 -295.54,139.11 -281.32,132 -267.1,139.11 	"/>
	<polygon class="st16" points="-252.87,146.23 -267.1,139.11 -252.87,132 -238.65,139.11 	"/>
	<polygon class="st16" points="-224.43,146.23 -238.65,139.11 -224.43,132 -210.2,139.11 	"/>
	<polygon class="st16" points="-195.98,146.23 -210.2,139.11 -195.98,132 -181.76,139.11 	"/>
	<polygon class="st16" points="-167.53,146.23 -181.76,139.11 -167.53,132 -153.31,139.11 	"/>
	<polygon class="st16" points="-323.99,153.34 -338.21,146.23 -323.99,139.11 -309.77,146.23 	"/>
	<polygon class="st16" points="-295.54,153.34 -309.77,146.23 -295.54,139.11 -281.32,146.23 	"/>
	<polygon class="st16" points="-267.1,153.34 -281.32,146.23 -267.1,139.11 -252.87,146.23 	"/>
	<polygon class="st16" points="-238.65,153.34 -252.87,146.23 -238.65,139.11 -224.43,146.23 	"/>
	<polygon class="st16" points="-210.2,153.34 -224.43,146.23 -210.2,139.11 -195.98,146.23 	"/>
	<polygon class="st16" points="-181.76,153.34 -195.98,146.23 -181.76,139.11 -167.53,146.23 	"/>
	<polygon class="st16" points="-309.77,160.45 -323.99,153.34 -309.77,146.23 -295.54,153.34 	"/>
	<polygon class="st16" points="-281.32,160.45 -295.54,153.34 -281.32,146.23 -267.1,153.34 	"/>
	<polygon class="st16" points="-252.87,160.45 -267.1,153.34 -252.87,146.23 -238.65,153.34 	"/>
	<polygon class="st16" points="-224.43,160.45 -238.65,153.34 -224.43,146.23 -210.2,153.34 	"/>
	<polygon class="st16" points="-195.98,160.45 -210.2,153.34 -195.98,146.23 -181.76,153.34 	"/>
	<polygon class="st16" points="-167.53,160.45 -181.76,153.34 -167.53,146.23 -153.31,153.34 	"/>
	<polygon class="st16" points="-323.99,167.56 -338.21,160.45 -323.99,153.34 -309.77,160.45 	"/>
	<polygon class="st16" points="-295.54,167.56 -309.77,160.45 -295.54,153.34 -281.32,160.45 	"/>
	<polygon class="st16" points="-267.1,167.56 -281.32,160.45 -267.1,153.34 -252.87,160.45 	"/>
	<polygon class="st16" points="-238.65,167.56 -252.87,160.45 -238.65,153.34 -224.43,160.45 	"/>
	<polygon class="st16" points="-210.2,167.56 -224.43,160.45 -210.2,153.34 -195.98,160.45 	"/>
	<polygon class="st16" points="-181.76,167.56 -195.98,160.45 -181.76,153.34 -167.53,160.45 	"/>
	<polygon class="st16" points="-309.77,174.67 -323.99,167.56 -309.77,160.45 -295.54,167.56 	"/>
	<polygon class="st16" points="-281.32,174.67 -295.54,167.56 -281.32,160.45 -267.1,167.56 	"/>
	<polygon class="st16" points="-252.87,174.67 -267.1,167.56 -252.87,160.45 -238.65,167.56 	"/>
	<polygon class="st16" points="-224.43,174.67 -238.65,167.56 -224.43,160.45 -210.2,167.56 	"/>
	<polygon class="st16" points="-195.98,174.67 -210.2,167.56 -195.98,160.45 -181.76,167.56 	"/>
	<polygon class="st16" points="-167.53,174.67 -181.76,167.56 -167.53,160.45 -153.31,167.56 	"/>
	<polygon class="st16" points="-323.99,181.78 -338.21,174.67 -323.99,167.56 -309.77,174.67 	"/>
	<polygon class="st16" points="-295.54,181.78 -309.77,174.67 -295.54,167.56 -281.32,174.67 	"/>
	<polygon class="st16" points="-267.1,181.78 -281.32,174.67 -267.1,167.56 -252.87,174.67 	"/>
	<polygon class="st16" points="-238.65,181.78 -252.87,174.67 -238.65,167.56 -224.43,174.67 	"/>
	<polygon class="st16" points="-210.2,181.78 -224.43,174.67 -210.2,167.56 -195.98,174.67 	"/>
	<polygon class="st16" points="-181.76,181.78 -195.98,174.67 -181.76,167.56 -167.53,174.67 	"/>
	<polygon class="st16" points="-309.77,188.9 -323.99,181.78 -309.77,174.67 -295.54,181.78 	"/>
	<polygon class="st16" points="-281.32,188.9 -295.54,181.78 -281.32,174.67 -267.1,181.78 	"/>
	<polygon class="st16" points="-252.87,188.9 -267.1,181.78 -252.87,174.67 -238.65,181.78 	"/>
	<polygon class="st16" points="-224.43,188.9 -238.65,181.78 -224.43,174.67 -210.2,181.78 	"/>
	<polygon class="st16" points="-195.98,188.9 -210.2,181.78 -195.98,174.67 -181.76,181.78 	"/>
	<polygon class="st16" points="-167.53,188.9 -181.76,181.78 -167.53,174.67 -153.31,181.78 	"/>
	<polygon class="st16" points="-323.99,196.01 -338.21,188.9 -323.99,181.78 -309.77,188.9 	"/>
	<polygon class="st16" points="-295.54,196.01 -309.77,188.9 -295.54,181.78 -281.32,188.9 	"/>
	<polygon class="st16" points="-267.1,196.01 -281.32,188.9 -267.1,181.78 -252.87,188.9 	"/>
	<polygon class="st16" points="-238.65,196.01 -252.87,188.9 -238.65,181.78 -224.43,188.9 	"/>
	<polygon class="st16" points="-210.2,196.01 -224.43,188.9 -210.2,181.78 -195.98,188.9 	"/>
	<polygon class="st16" points="-181.76,196.01 -195.98,188.9 -181.76,181.78 -167.53,188.9 	"/>
	<polygon class="st16" points="-309.77,203.12 -323.99,196.01 -309.77,188.9 -295.54,196.01 	"/>
	<polygon class="st16" points="-281.32,203.12 -295.54,196.01 -281.32,188.9 -267.1,196.01 	"/>
	<polygon class="st16" points="-252.87,203.12 -267.1,196.01 -252.87,188.9 -238.65,196.01 	"/>
	<polygon class="st16" points="-224.43,203.12 -238.65,196.01 -224.43,188.9 -210.2,196.01 	"/>
	<polygon class="st16" points="-195.98,203.12 -210.2,196.01 -195.98,188.9 -181.76,196.01 	"/>
	<polygon class="st16" points="-167.53,203.12 -181.76,196.01 -167.53,188.9 -153.31,196.01 	"/>
	<polygon class="st16" points="-323.99,210.23 -338.21,203.12 -323.99,196.01 -309.77,203.12 	"/>
	<polygon class="st16" points="-295.54,210.23 -309.77,203.12 -295.54,196.01 -281.32,203.12 	"/>
	<polygon class="st16" points="-267.1,210.23 -281.32,203.12 -267.1,196.01 -252.87,203.12 	"/>
	<polygon class="st16" points="-238.65,210.23 -252.87,203.12 -238.65,196.01 -224.43,203.12 	"/>
	<polygon class="st16" points="-210.2,210.23 -224.43,203.12 -210.2,196.01 -195.98,203.12 	"/>
	<polygon class="st16" points="-181.76,210.23 -195.98,203.12 -181.76,196.01 -167.53,203.12 	"/>
	<polygon class="st16" points="-309.77,217.34 -323.99,210.23 -309.77,203.12 -295.54,210.23 	"/>
	<polygon class="st16" points="-281.32,217.34 -295.54,210.23 -281.32,203.12 -267.1,210.23 	"/>
	<polygon class="st16" points="-252.87,217.34 -267.1,210.23 -252.87,203.12 -238.65,210.23 	"/>
	<polygon class="st16" points="-224.43,217.34 -238.65,210.23 -224.43,203.12 -210.2,210.23 	"/>
	<polygon class="st16" points="-195.98,217.34 -210.2,210.23 -195.98,203.12 -181.76,210.23 	"/>
	<polygon class="st16" points="-167.53,217.34 -181.76,210.23 -167.53,203.12 -153.31,210.23 	"/>
	<polygon class="st16" points="-323.99,224.45 -338.21,217.34 -323.99,210.23 -309.77,217.34 	"/>
	<polygon class="st16" points="-295.54,224.45 -309.77,217.34 -295.54,210.23 -281.32,217.34 	"/>
	<polygon class="st16" points="-267.1,224.45 -281.32,217.34 -267.1,210.23 -252.87,217.34 	"/>
	<polygon class="st16" points="-238.65,224.45 -252.87,217.34 -238.65,210.23 -224.43,217.34 	"/>
	<polygon class="st16" points="-210.2,224.45 -224.43,217.34 -210.2,210.23 -195.98,217.34 	"/>
	<polygon class="st16" points="-181.76,224.45 -195.98,217.34 -181.76,210.23 -167.53,217.34 	"/>
	<polygon class="st16" points="-153.31,139.11 -167.53,132 -153.31,124.89 -139.09,132 	"/>
	<polygon class="st16" points="-153.31,153.34 -167.53,146.23 -153.31,139.11 -139.09,146.23 	"/>
	<polygon class="st16" points="-153.31,167.56 -167.53,160.45 -153.31,153.34 -139.09,160.45 	"/>
	<polygon class="st16" points="-153.31,181.78 -167.53,174.67 -153.31,167.56 -139.09,174.67 	"/>
	<polygon class="st16" points="-153.31,196.01 -167.53,188.9 -153.31,181.78 -139.09,188.9 	"/>
	<polygon class="st16" points="-153.31,210.23 -167.53,203.12 -153.31,196.01 -139.09,203.12 	"/>
	<polygon class="st16" points="-153.31,224.45 -167.53,217.34 -153.31,210.23 -139.09,217.34 	"/>
</g>
<rect x="-426.75" y="61.56" class="st11" width="376.21" height="211.62"/>
<rect x="-426.75" y="61.56" class="st11" width="376.21" height="15.31"/>
<text transform="matrix(1 0 0 1 -420.9482 70.9778)" style="font-family:'MyriadPro-Regular'; font-size:7.9651px;">Logo</text>
<text transform="matrix(1 0 0 1 -135.6679 70.9778)" style="font-family:'MyriadPro-Regular'; font-size:6.1333px;">Login | Signup | Hi, $userName</text>
<g>
	<circle cx="-334.89" cy="109.59" r="3.32"/>
	<circle cx="-313.51" cy="109.59" r="3.32"/>
	<circle cx="-292.12" cy="109.59" r="3.32"/>
	<circle cx="-270.73" cy="109.59" r="3.32"/>
	<circle cx="-249.34" cy="109.59" r="3.32"/>
	<circle cx="-227.95" cy="109.59" r="3.32"/>
	<circle cx="-206.57" cy="109.59" r="3.32"/>
	<circle cx="-185.18" cy="109.8" r="3.32"/>
	<circle class="st21" cx="-163.79" cy="109.59" r="3.32"/>
	<circle class="st21" cx="-142.4" cy="109.59" r="3.32"/>
	<line class="st22" x1="-334.89" y1="109.59" x2="-185.18" y2="109.59"/>
</g>
<g>
	<path class="st21" d="M-310.15,251.31h-21.34c-3.71,0-6.72-3.01-6.72-6.72v-1.17c0-3.71,3.01-6.72,6.72-6.72h21.34
		c3.71,0,6.72,3.01,6.72,6.72v1.17C-303.43,248.3-306.44,251.31-310.15,251.31z"/>
	<text transform="matrix(1 0 0 1 -333.0605 245.3694)" style="font-family:'MyriadPro-Regular'; font-size:4.6463px;">Visual Match</text>
</g>
<g>
	<path class="st21" d="M-227.98,251.31h-21.34c-3.71,0-6.72-3.01-6.72-6.72v-1.17c0-3.71,3.01-6.72,6.72-6.72h21.34
		c3.71,0,6.72,3.01,6.72,6.72v1.17C-221.26,248.3-224.27,251.31-227.98,251.31z"/>
	<text transform="matrix(1 0 0 1 -252.3652 245.3694)" style="font-family:'MyriadPro-Regular'; font-size:4.6463px;">Double Match</text>
</g>
<g>
	<path class="st21" d="M-145.81,251.31h-21.34c-3.71,0-6.72-3.01-6.72-6.72v-1.17c0-3.71,3.01-6.72,6.72-6.72h21.34
		c3.71,0,6.72,3.01,6.72,6.72v1.17C-139.09,248.3-142.1,251.31-145.81,251.31z"/>
	<text transform="matrix(1 0 0 1 -169.3603 245.3694)" style="font-family:'MyriadPro-Regular'; font-size:4.6463px;">Sound Match</text>
</g>
<text transform="matrix(1 0 0 1 -248.9531 95.7493)" style="font-family:'MyriadPro-Regular'; font-size:6.8429px;">Level 1</text>
<text transform="matrix(1 0 0 1 -262.6718 264.1429)" style="font-family:'MyriadPro-Regular'; font-size:4.6463px;">Score: 123546543 points</text>
<g>
	<g>
		<polygon class="st23" points="-238.66,140.93 -238.66,150.93 -228.67,145.94 -228.67,135.94 		"/>
	</g>
	<polygon class="st24" points="-238.66,140.93 -238.66,150.93 -248.65,145.94 -248.65,135.94 	"/>
	<polygon class="st25" points="-238.66,140.93 -248.65,135.94 -238.66,130.94 -228.67,135.94 	"/>
</g>
<g>
	<g>
		<polygon class="st23" points="-210.69,184.37 -210.69,194.37 -200.7,189.37 -200.7,179.38 		"/>
	</g>
	<polygon class="st24" points="-210.69,184.37 -210.69,194.37 -220.68,189.37 -220.68,179.38 	"/>
	<polygon class="st25" points="-210.69,184.37 -220.68,179.38 -210.69,174.38 -200.7,179.38 	"/>
</g>
<rect x="-426.75" y="332.21" class="st11" width="376.21" height="211.62"/>
<rect x="-426.75" y="332.21" class="st11" width="376.21" height="15.31"/>
<text transform="matrix(1 0 0 1 -420.9482 341.6273)" style="font-family:'MyriadPro-Regular'; font-size:7.9651px;">Logo</text>
<text transform="matrix(1 0 0 1 -135.6679 341.6273)" style="font-family:'MyriadPro-Regular'; font-size:6.1333px;">Login | Signup | Hi, $userName</text>
<text transform="matrix(1 0 0 1 -823.2503 51.8682)" style="font-family:'MyriadPro-Regular'; font-size:12.7144px;">Start Screen</text>
<text transform="matrix(1 0 0 1 -822.6849 324.3354)" style="font-family:'MyriadPro-Regular'; font-size:12.7144px;">Instructions</text>
<text transform="matrix(1 0 0 1 -715.5716 367.5891)" style="font-family:'MyriadPro-Regular'; font-size:11.6091px;">How to play?</text>
<text transform="matrix(1 0 0 1 -358.872 758.4697)" style="font-family:'MyriadPro-Regular'; font-size:11.6091px;">$userName Details</text>
<text transform="matrix(1 0 0 1 -357.4025 775.2408)"><tspan x="0" y="0" style="font-family:'MyriadPro-Regular'; font-size:10.342px;">detail detail</tspan><tspan x="0" y="12.41" style="font-family:'MyriadPro-Regular'; font-size:10.342px;">detaildetail</tspan><tspan x="0" y="24.82" style="font-family:'MyriadPro-Regular'; font-size:10.342px;">detaildetaildetail</tspan><tspan x="0" y="37.23" style="font-family:'MyriadPro-Regular'; font-size:10.342px;">detaildetaildetail</tspan></text>
<text transform="matrix(1 0 0 1 -196.2314 749.0391)" style="font-family:'MyriadPro-Regular'; font-size:10.6047px;">High Scores</text>
<text transform="matrix(1 0 0 1 -426.4138 51.8682)" style="font-family:'MyriadPro-Regular'; font-size:12.7144px;">Game Screen</text>
<text transform="matrix(1 0 0 1 -426.7286 324.3351)" style="font-family:'MyriadPro-Regular'; font-size:12.7144px;">High Scores</text>
<text transform="matrix(1 0 0 1 -697.1801 157.3546)" style="font-family:'MyriadPro-Regular'; font-size:52.1106px;">Logo</text>
<text transform="matrix(1 0 0 1 -649.7444 204.2583)" style="font-family:'MyriadPro-Regular'; font-size:12.6226px;">Start</text>
<text transform="matrix(1 0 0 1 -668.3499 221.4971)" style="font-family:'MyriadPro-Regular'; font-size:12.6226px;">Instructions</text>
<text transform="matrix(1 0 0 1 -667.9144 238.6733)" style="font-family:'MyriadPro-Regular'; font-size:12.4095px;">High Scores</text>
<g>
	<path class="st1" d="M-678.54,400.07"/>
	<g>
		<polygon class="st16" points="-709.5,394.84 -714.66,392.26 -709.5,389.68 -704.34,392.26 		"/>
		<polygon class="st16" points="-699.18,394.84 -704.34,392.26 -699.18,389.68 -694.02,392.26 		"/>
		<polygon class="st16" points="-688.86,394.84 -694.02,392.26 -688.86,389.68 -683.7,392.26 		"/>
		<polygon class="st16" points="-678.54,394.84 -683.7,392.26 -678.54,389.68 -673.38,392.26 		"/>
		<polygon class="st16" points="-668.22,394.84 -673.38,392.26 -668.22,389.68 -663.06,392.26 		"/>
		<polygon class="st16" points="-657.9,394.84 -663.06,392.26 -657.9,389.68 -652.74,392.26 		"/>
		<polygon class="st16" points="-704.34,397.42 -709.5,394.84 -704.34,392.26 -699.18,394.84 		"/>
		<polygon class="st16" points="-694.02,397.42 -699.18,394.84 -694.02,392.26 -688.86,394.84 		"/>
		<polygon class="st16" points="-683.7,397.42 -688.86,394.84 -683.7,392.26 -678.54,394.84 		"/>
		<polygon class="st16" points="-673.38,397.42 -678.54,394.84 -673.38,392.26 -668.22,394.84 		"/>
		<polygon class="st16" points="-663.06,397.42 -668.22,394.84 -663.06,392.26 -657.9,394.84 		"/>
		<polygon class="st16" points="-652.74,397.42 -657.9,394.84 -652.74,392.26 -647.58,394.84 		"/>
		<polygon class="st16" points="-709.5,400 -714.66,397.42 -709.5,394.84 -704.34,397.42 		"/>
		<polygon class="st16" points="-699.18,400 -704.34,397.42 -699.18,394.84 -694.02,397.42 		"/>
		<polygon class="st16" points="-688.86,400 -694.02,397.42 -688.86,394.84 -683.7,397.42 		"/>
		<polygon class="st16" points="-678.54,400 -683.7,397.42 -678.54,394.84 -673.38,397.42 		"/>
		<polygon class="st16" points="-668.22,400 -673.38,397.42 -668.22,394.84 -663.06,397.42 		"/>
		<polygon class="st16" points="-657.9,400 -663.06,397.42 -657.9,394.84 -652.74,397.42 		"/>
		<polygon class="st16" points="-704.34,402.58 -709.5,400 -704.34,397.42 -699.18,400 		"/>
		<polygon class="st16" points="-694.02,402.58 -699.18,400 -694.02,397.42 -688.86,400 		"/>
		<polygon class="st16" points="-683.7,402.58 -688.86,400 -683.7,397.42 -678.54,400 		"/>
		<polygon class="st16" points="-673.38,402.58 -678.54,400 -673.38,397.42 -668.22,400 		"/>
		<polygon class="st16" points="-663.06,402.58 -668.22,400 -663.06,397.42 -657.9,400 		"/>
		<polygon class="st16" points="-652.74,402.58 -657.9,400 -652.74,397.42 -647.58,400 		"/>
		<polygon class="st16" points="-709.5,405.16 -714.66,402.58 -709.5,400 -704.34,402.58 		"/>
		<polygon class="st16" points="-699.18,405.16 -704.34,402.58 -699.18,400 -694.02,402.58 		"/>
		<polygon class="st16" points="-688.86,405.16 -694.02,402.58 -688.86,400 -683.7,402.58 		"/>
		<polygon class="st16" points="-678.54,405.16 -683.7,402.58 -678.54,400 -673.38,402.58 		"/>
		<polygon class="st16" points="-668.22,405.16 -673.38,402.58 -668.22,400 -663.06,402.58 		"/>
		<polygon class="st16" points="-657.9,405.16 -663.06,402.58 -657.9,400 -652.74,402.58 		"/>
		<polygon class="st16" points="-704.34,407.74 -709.5,405.16 -704.34,402.58 -699.18,405.16 		"/>
		<polygon class="st16" points="-694.02,407.74 -699.18,405.16 -694.02,402.58 -688.86,405.16 		"/>
		<polygon class="st16" points="-683.7,407.74 -688.86,405.16 -683.7,402.58 -678.54,405.16 		"/>
		<polygon class="st16" points="-673.38,407.74 -678.54,405.16 -673.38,402.58 -668.22,405.16 		"/>
		<polygon class="st16" points="-663.06,407.74 -668.22,405.16 -663.06,402.58 -657.9,405.16 		"/>
		<polygon class="st16" points="-652.74,407.74 -657.9,405.16 -652.74,402.58 -647.58,405.16 		"/>
		<polygon class="st16" points="-709.5,410.32 -714.66,407.74 -709.5,405.16 -704.34,407.74 		"/>
		<polygon class="st16" points="-699.18,410.32 -704.34,407.74 -699.18,405.16 -694.02,407.74 		"/>
		<polygon class="st16" points="-688.86,410.32 -694.02,407.74 -688.86,405.16 -683.7,407.74 		"/>
		<polygon class="st16" points="-678.54,410.32 -683.7,407.74 -678.54,405.16 -673.38,407.74 		"/>
		<polygon class="st16" points="-668.22,410.32 -673.38,407.74 -668.22,405.16 -663.06,407.74 		"/>
		<polygon class="st16" points="-657.9,410.32 -663.06,407.74 -657.9,405.16 -652.74,407.74 		"/>
		<polygon class="st16" points="-704.34,412.9 -709.5,410.32 -704.34,407.74 -699.18,410.32 		"/>
		<polygon class="st16" points="-694.02,412.9 -699.18,410.32 -694.02,407.74 -688.86,410.32 		"/>
		<polygon class="st16" points="-683.7,412.9 -688.86,410.32 -683.7,407.74 -678.54,410.32 		"/>
		<polygon class="st16" points="-673.38,412.9 -678.54,410.32 -673.38,407.74 -668.22,410.32 		"/>
		<polygon class="st16" points="-663.06,412.9 -668.22,410.32 -663.06,407.74 -657.9,410.32 		"/>
		<polygon class="st16" points="-652.74,412.9 -657.9,410.32 -652.74,407.74 -647.58,410.32 		"/>
		<polygon class="st16" points="-709.5,415.48 -714.66,412.9 -709.5,410.32 -704.34,412.9 		"/>
		<polygon class="st16" points="-699.18,415.48 -704.34,412.9 -699.18,410.32 -694.02,412.9 		"/>
		<polygon class="st16" points="-688.86,415.48 -694.02,412.9 -688.86,410.32 -683.7,412.9 		"/>
		<polygon class="st16" points="-678.54,415.48 -683.7,412.9 -678.54,410.32 -673.38,412.9 		"/>
		<polygon class="st16" points="-668.22,415.48 -673.38,412.9 -668.22,410.32 -663.06,412.9 		"/>
		<polygon class="st16" points="-657.9,415.48 -663.06,412.9 -657.9,410.32 -652.74,412.9 		"/>
		<polygon class="st16" points="-704.34,418.06 -709.5,415.48 -704.34,412.9 -699.18,415.48 		"/>
		<polygon class="st16" points="-694.02,418.06 -699.18,415.48 -694.02,412.9 -688.86,415.48 		"/>
		<polygon class="st16" points="-683.7,418.06 -688.86,415.48 -683.7,412.9 -678.54,415.48 		"/>
		<polygon class="st16" points="-673.38,418.06 -678.54,415.48 -673.38,412.9 -668.22,415.48 		"/>
		<polygon class="st16" points="-663.06,418.06 -668.22,415.48 -663.06,412.9 -657.9,415.48 		"/>
		<polygon class="st16" points="-652.74,418.06 -657.9,415.48 -652.74,412.9 -647.58,415.48 		"/>
		<polygon class="st16" points="-709.5,420.64 -714.66,418.06 -709.5,415.48 -704.34,418.06 		"/>
		<polygon class="st16" points="-699.18,420.64 -704.34,418.06 -699.18,415.48 -694.02,418.06 		"/>
		<polygon class="st16" points="-688.86,420.64 -694.02,418.06 -688.86,415.48 -683.7,418.06 		"/>
		<polygon class="st16" points="-678.54,420.64 -683.7,418.06 -678.54,415.48 -673.38,418.06 		"/>
		<polygon class="st16" points="-668.22,420.64 -673.38,418.06 -668.22,415.48 -663.06,418.06 		"/>
		<polygon class="st16" points="-657.9,420.64 -663.06,418.06 -657.9,415.48 -652.74,418.06 		"/>
		<polygon class="st16" points="-704.34,423.22 -709.5,420.64 -704.34,418.06 -699.18,420.64 		"/>
		<polygon class="st16" points="-694.02,423.22 -699.18,420.64 -694.02,418.06 -688.86,420.64 		"/>
		<polygon class="st16" points="-683.7,423.22 -688.86,420.64 -683.7,418.06 -678.54,420.64 		"/>
		<polygon class="st16" points="-673.38,423.22 -678.54,420.64 -673.38,418.06 -668.22,420.64 		"/>
		<polygon class="st16" points="-663.06,423.22 -668.22,420.64 -663.06,418.06 -657.9,420.64 		"/>
		<polygon class="st16" points="-652.74,423.22 -657.9,420.64 -652.74,418.06 -647.58,420.64 		"/>
		<polygon class="st16" points="-709.5,425.8 -714.66,423.22 -709.5,420.64 -704.34,423.22 		"/>
		<polygon class="st16" points="-699.18,425.8 -704.34,423.22 -699.18,420.64 -694.02,423.22 		"/>
		<polygon class="st16" points="-688.86,425.8 -694.02,423.22 -688.86,420.64 -683.7,423.22 		"/>
		<polygon class="st16" points="-678.54,425.8 -683.7,423.22 -678.54,420.64 -673.38,423.22 		"/>
		<polygon class="st16" points="-668.22,425.8 -673.38,423.22 -668.22,420.64 -663.06,423.22 		"/>
		<polygon class="st16" points="-657.9,425.8 -663.06,423.22 -657.9,420.64 -652.74,423.22 		"/>
		<polygon class="st16" points="-647.58,394.84 -652.74,392.26 -647.58,389.68 -642.42,392.26 		"/>
		<polygon class="st16" points="-647.58,400 -652.74,397.42 -647.58,394.84 -642.42,397.42 		"/>
		<polygon class="st16" points="-647.58,405.16 -652.74,402.58 -647.58,400 -642.42,402.58 		"/>
		<polygon class="st16" points="-647.58,410.32 -652.74,407.74 -647.58,405.16 -642.42,407.74 		"/>
		<polygon class="st16" points="-647.58,415.48 -652.74,412.9 -647.58,410.32 -642.42,412.9 		"/>
		<polygon class="st16" points="-647.58,420.64 -652.74,418.06 -647.58,415.48 -642.42,418.06 		"/>
		<polygon class="st16" points="-647.58,425.8 -652.74,423.22 -647.58,420.64 -642.42,423.22 		"/>
	</g>
	<g>
		<circle cx="-713.45" cy="384.13" r="1.2"/>
		<circle cx="-705.69" cy="384.13" r="1.2"/>
		<circle cx="-697.93" cy="384.13" r="1.2"/>
		<circle cx="-690.17" cy="384.13" r="1.2"/>
		<circle cx="-682.42" cy="384.13" r="1.2"/>
		<circle cx="-674.66" cy="384.13" r="1.2"/>
		<circle cx="-666.9" cy="384.13" r="1.2"/>
		<circle cx="-659.14" cy="384.2" r="1.2"/>
		<circle class="st21" cx="-651.38" cy="384.13" r="1.2"/>
		<circle class="st21" cx="-643.62" cy="384.13" r="1.2"/>
		<line class="st22" x1="-713.45" y1="384.13" x2="-659.14" y2="384.13"/>
	</g>
	<text transform="matrix(1 0 0 1 -682.2747 379.1066)" style="font-family:'MyriadPro-Regular'; font-size:2.4825px;">Level 1</text>
	<g>
		<g>
			<polygon class="st23" points="-678.54,395.5 -678.54,399.13 -674.92,397.31 -674.92,393.69 			"/>
		</g>
		<polygon class="st24" points="-678.54,395.5 -678.54,399.13 -682.16,397.31 -682.16,393.69 		"/>
		<polygon class="st25" points="-678.54,395.5 -682.16,393.69 -678.54,391.87 -674.92,393.69 		"/>
	</g>
	<g>
		<g>
			<polygon class="st23" points="-668.39,411.26 -668.39,414.88 -664.77,413.07 -664.77,409.45 			"/>
		</g>
		<polygon class="st24" points="-668.39,411.26 -668.39,414.88 -672.02,413.07 -672.02,409.45 		"/>
		<polygon class="st25" points="-668.39,411.26 -672.02,409.45 -668.39,407.63 -664.77,409.45 		"/>
	</g>
	<rect x="-714.72" y="433.08" style="fill:none;" width="74.18" height="30.16"/>
	<text transform="matrix(1 0 0 1 -714.7239 436.3195)"><tspan x="0" y="0" style="font-family:'MyriadPro-Regular'; font-size:4.5653px;">Lorem</tspan><tspan x="12.25" y="0" style="font-family:'MyriadPro-Regular'; font-size:4.5653px; letter-spacing:5;"> </tspan><tspan x="18.46" y="0" style="font-family:'MyriadPro-Regular'; font-size:4.5653px;">ipsum</tspan><tspan x="30.25" y="0" style="font-family:'MyriadPro-Regular'; font-size:4.5653px; letter-spacing:5;"> </tspan><tspan x="36.47" y="0" style="font-family:'MyriadPro-Regular'; font-size:4.5653px;">dolor</tspan><tspan x="46.62" y="0" style="font-family:'MyriadPro-Regular'; font-size:4.5653px; letter-spacing:5;"> </tspan><tspan x="52.83" y="0" style="font-family:'MyriadPro-Regular'; font-size:4.5653px;">sit</tspan><tspan x="57.22" y="0" style="font-family:'MyriadPro-Regular'; font-size:4.5653px; letter-spacing:5;"> </tspan><tspan x="63.43" y="0" style="font-family:'MyriadPro-Regular'; font-size:4.5653px;">amet, </tspan><tspan x="0" y="5.48" style="font-family:'MyriadPro-Regular'; font-size:4.5653px;">consectetuer</tspan><tspan x="24.83" y="5.48" style="font-family:'MyriadPro-Regular'; font-size:4.5653px;"> </tspan><tspan x="26.49" y="5.48" style="font-family:'MyriadPro-Regular'; font-size:4.5653px;">adipiscing</tspan><tspan x="46" y="5.48" style="font-family:'MyriadPro-Regular'; font-size:4.5653px;"> </tspan><tspan x="47.66" y="5.48" style="font-family:'MyriadPro-Regular'; font-size:4.5653px;">elit,</tspan><tspan x="54.55" y="5.48" style="font-family:'MyriadPro-Regular'; font-size:4.5653px;"> </tspan><tspan x="56.21" y="5.48" style="font-family:'MyriadPro-Regular'; font-size:4.5653px;">sed</tspan><tspan x="62.88" y="5.48" style="font-family:'MyriadPro-Regular'; font-size:4.5653px;"> </tspan><tspan x="64.53" y="5.48" style="font-family:'MyriadPro-Regular'; font-size:4.5653px;">diam </tspan><tspan x="0" y="10.96" style="font-family:'MyriadPro-Regular'; font-size:4.5653px;">nonummy nibh euismod </tspan></text>
</g>
<rect x="-718" y="374.81" class="st16" width="79.91" height="53.98"/>
<g>
	<path class="st1" d="M-591.69,400.07"/>
	<g>
		<polygon class="st16" points="-622.65,394.84 -627.81,392.26 -622.65,389.68 -617.49,392.26 		"/>
		<polygon class="st16" points="-612.33,394.84 -617.49,392.26 -612.33,389.68 -607.17,392.26 		"/>
		<polygon class="st16" points="-602.01,394.84 -607.17,392.26 -602.01,389.68 -596.85,392.26 		"/>
		<polygon class="st16" points="-591.69,394.84 -596.85,392.26 -591.69,389.68 -586.53,392.26 		"/>
		<polygon class="st16" points="-581.37,394.84 -586.53,392.26 -581.37,389.68 -576.21,392.26 		"/>
		<polygon class="st16" points="-571.05,394.84 -576.21,392.26 -571.05,389.68 -565.89,392.26 		"/>
		<polygon class="st16" points="-617.49,397.42 -622.65,394.84 -617.49,392.26 -612.33,394.84 		"/>
		<polygon class="st16" points="-607.17,397.42 -612.33,394.84 -607.17,392.26 -602.01,394.84 		"/>
		<polygon class="st16" points="-596.85,397.42 -602.01,394.84 -596.85,392.26 -591.69,394.84 		"/>
		<polygon class="st16" points="-586.53,397.42 -591.69,394.84 -586.53,392.26 -581.37,394.84 		"/>
		<polygon class="st16" points="-576.21,397.42 -581.37,394.84 -576.21,392.26 -571.05,394.84 		"/>
		<polygon class="st16" points="-565.89,397.42 -571.05,394.84 -565.89,392.26 -560.73,394.84 		"/>
		<polygon class="st16" points="-622.65,400 -627.81,397.42 -622.65,394.84 -617.49,397.42 		"/>
		<polygon class="st16" points="-612.33,400 -617.49,397.42 -612.33,394.84 -607.17,397.42 		"/>
		<polygon class="st16" points="-602.01,400 -607.17,397.42 -602.01,394.84 -596.85,397.42 		"/>
		<polygon class="st16" points="-591.69,400 -596.85,397.42 -591.69,394.84 -586.53,397.42 		"/>
		<polygon class="st16" points="-581.37,400 -586.53,397.42 -581.37,394.84 -576.21,397.42 		"/>
		<polygon class="st16" points="-571.05,400 -576.21,397.42 -571.05,394.84 -565.89,397.42 		"/>
		<polygon class="st16" points="-617.49,402.58 -622.65,400 -617.49,397.42 -612.33,400 		"/>
		<polygon class="st16" points="-607.17,402.58 -612.33,400 -607.17,397.42 -602.01,400 		"/>
		<polygon class="st16" points="-596.85,402.58 -602.01,400 -596.85,397.42 -591.69,400 		"/>
		<polygon class="st16" points="-586.53,402.58 -591.69,400 -586.53,397.42 -581.37,400 		"/>
		<polygon class="st16" points="-576.21,402.58 -581.37,400 -576.21,397.42 -571.05,400 		"/>
		<polygon class="st16" points="-565.89,402.58 -571.05,400 -565.89,397.42 -560.73,400 		"/>
		<polygon class="st16" points="-622.65,405.16 -627.81,402.58 -622.65,400 -617.49,402.58 		"/>
		<polygon class="st16" points="-612.33,405.16 -617.49,402.58 -612.33,400 -607.17,402.58 		"/>
		<polygon class="st16" points="-602.01,405.16 -607.17,402.58 -602.01,400 -596.85,402.58 		"/>
		<polygon class="st16" points="-591.69,405.16 -596.85,402.58 -591.69,400 -586.53,402.58 		"/>
		<polygon class="st16" points="-581.37,405.16 -586.53,402.58 -581.37,400 -576.21,402.58 		"/>
		<polygon class="st16" points="-571.05,405.16 -576.21,402.58 -571.05,400 -565.89,402.58 		"/>
		<polygon class="st16" points="-617.49,407.74 -622.65,405.16 -617.49,402.58 -612.33,405.16 		"/>
		<polygon class="st16" points="-607.17,407.74 -612.33,405.16 -607.17,402.58 -602.01,405.16 		"/>
		<polygon class="st16" points="-596.85,407.74 -602.01,405.16 -596.85,402.58 -591.69,405.16 		"/>
		<polygon class="st16" points="-586.53,407.74 -591.69,405.16 -586.53,402.58 -581.37,405.16 		"/>
		<polygon class="st16" points="-576.21,407.74 -581.37,405.16 -576.21,402.58 -571.05,405.16 		"/>
		<polygon class="st16" points="-565.89,407.74 -571.05,405.16 -565.89,402.58 -560.73,405.16 		"/>
		<polygon class="st16" points="-622.65,410.32 -627.81,407.74 -622.65,405.16 -617.49,407.74 		"/>
		<polygon class="st16" points="-612.33,410.32 -617.49,407.74 -612.33,405.16 -607.17,407.74 		"/>
		<polygon class="st16" points="-602.01,410.32 -607.17,407.74 -602.01,405.16 -596.85,407.74 		"/>
		<polygon class="st16" points="-591.69,410.32 -596.85,407.74 -591.69,405.16 -586.53,407.74 		"/>
		<polygon class="st16" points="-581.37,410.32 -586.53,407.74 -581.37,405.16 -576.21,407.74 		"/>
		<polygon class="st16" points="-571.05,410.32 -576.21,407.74 -571.05,405.16 -565.89,407.74 		"/>
		<polygon class="st16" points="-617.49,412.9 -622.65,410.32 -617.49,407.74 -612.33,410.32 		"/>
		<polygon class="st16" points="-607.17,412.9 -612.33,410.32 -607.17,407.74 -602.01,410.32 		"/>
		<polygon class="st16" points="-596.85,412.9 -602.01,410.32 -596.85,407.74 -591.69,410.32 		"/>
		<polygon class="st16" points="-586.53,412.9 -591.69,410.32 -586.53,407.74 -581.37,410.32 		"/>
		<polygon class="st16" points="-576.21,412.9 -581.37,410.32 -576.21,407.74 -571.05,410.32 		"/>
		<polygon class="st16" points="-565.89,412.9 -571.05,410.32 -565.89,407.74 -560.73,410.32 		"/>
		<polygon class="st16" points="-622.65,415.48 -627.81,412.9 -622.65,410.32 -617.49,412.9 		"/>
		<polygon class="st16" points="-612.33,415.48 -617.49,412.9 -612.33,410.32 -607.17,412.9 		"/>
		<polygon class="st16" points="-602.01,415.48 -607.17,412.9 -602.01,410.32 -596.85,412.9 		"/>
		<polygon class="st16" points="-591.69,415.48 -596.85,412.9 -591.69,410.32 -586.53,412.9 		"/>
		<polygon class="st16" points="-581.37,415.48 -586.53,412.9 -581.37,410.32 -576.21,412.9 		"/>
		<polygon class="st16" points="-571.05,415.48 -576.21,412.9 -571.05,410.32 -565.89,412.9 		"/>
		<polygon class="st16" points="-617.49,418.06 -622.65,415.48 -617.49,412.9 -612.33,415.48 		"/>
		<polygon class="st16" points="-607.17,418.06 -612.33,415.48 -607.17,412.9 -602.01,415.48 		"/>
		<polygon class="st16" points="-596.85,418.06 -602.01,415.48 -596.85,412.9 -591.69,415.48 		"/>
		<polygon class="st16" points="-586.53,418.06 -591.69,415.48 -586.53,412.9 -581.37,415.48 		"/>
		<polygon class="st16" points="-576.21,418.06 -581.37,415.48 -576.21,412.9 -571.05,415.48 		"/>
		<polygon class="st16" points="-565.89,418.06 -571.05,415.48 -565.89,412.9 -560.73,415.48 		"/>
		<polygon class="st16" points="-622.65,420.64 -627.81,418.06 -622.65,415.48 -617.49,418.06 		"/>
		<polygon class="st16" points="-612.33,420.64 -617.49,418.06 -612.33,415.48 -607.17,418.06 		"/>
		<polygon class="st16" points="-602.01,420.64 -607.17,418.06 -602.01,415.48 -596.85,418.06 		"/>
		<polygon class="st16" points="-591.69,420.64 -596.85,418.06 -591.69,415.48 -586.53,418.06 		"/>
		<polygon class="st16" points="-581.37,420.64 -586.53,418.06 -581.37,415.48 -576.21,418.06 		"/>
		<polygon class="st16" points="-571.05,420.64 -576.21,418.06 -571.05,415.48 -565.89,418.06 		"/>
		<polygon class="st16" points="-617.49,423.22 -622.65,420.64 -617.49,418.06 -612.33,420.64 		"/>
		<polygon class="st16" points="-607.17,423.22 -612.33,420.64 -607.17,418.06 -602.01,420.64 		"/>
		<polygon class="st16" points="-596.85,423.22 -602.01,420.64 -596.85,418.06 -591.69,420.64 		"/>
		<polygon class="st16" points="-586.53,423.22 -591.69,420.64 -586.53,418.06 -581.37,420.64 		"/>
		<polygon class="st16" points="-576.21,423.22 -581.37,420.64 -576.21,418.06 -571.05,420.64 		"/>
		<polygon class="st16" points="-565.89,423.22 -571.05,420.64 -565.89,418.06 -560.73,420.64 		"/>
		<polygon class="st16" points="-622.65,425.8 -627.81,423.22 -622.65,420.64 -617.49,423.22 		"/>
		<polygon class="st16" points="-612.33,425.8 -617.49,423.22 -612.33,420.64 -607.17,423.22 		"/>
		<polygon class="st16" points="-602.01,425.8 -607.17,423.22 -602.01,420.64 -596.85,423.22 		"/>
		<polygon class="st16" points="-591.69,425.8 -596.85,423.22 -591.69,420.64 -586.53,423.22 		"/>
		<polygon class="st16" points="-581.37,425.8 -586.53,423.22 -581.37,420.64 -576.21,423.22 		"/>
		<polygon class="st16" points="-571.05,425.8 -576.21,423.22 -571.05,420.64 -565.89,423.22 		"/>
		<polygon class="st16" points="-560.73,394.84 -565.89,392.26 -560.73,389.68 -555.57,392.26 		"/>
		<polygon class="st16" points="-560.73,400 -565.89,397.42 -560.73,394.84 -555.57,397.42 		"/>
		<polygon class="st16" points="-560.73,405.16 -565.89,402.58 -560.73,400 -555.57,402.58 		"/>
		<polygon class="st16" points="-560.73,410.32 -565.89,407.74 -560.73,405.16 -555.57,407.74 		"/>
		<polygon class="st16" points="-560.73,415.48 -565.89,412.9 -560.73,410.32 -555.57,412.9 		"/>
		<polygon class="st16" points="-560.73,420.64 -565.89,418.06 -560.73,415.48 -555.57,418.06 		"/>
		<polygon class="st16" points="-560.73,425.8 -565.89,423.22 -560.73,420.64 -555.57,423.22 		"/>
	</g>
	<g>
		<circle cx="-626.6" cy="384.13" r="1.2"/>
		<circle cx="-618.84" cy="384.13" r="1.2"/>
		<circle cx="-611.08" cy="384.13" r="1.2"/>
		<circle cx="-603.32" cy="384.13" r="1.2"/>
		<circle cx="-595.57" cy="384.13" r="1.2"/>
		<circle cx="-587.81" cy="384.13" r="1.2"/>
		<circle cx="-580.05" cy="384.13" r="1.2"/>
		<circle cx="-572.29" cy="384.2" r="1.2"/>
		<circle class="st21" cx="-564.53" cy="384.13" r="1.2"/>
		<circle class="st21" cx="-556.77" cy="384.13" r="1.2"/>
		<line class="st22" x1="-626.6" y1="384.13" x2="-572.29" y2="384.13"/>
	</g>
	<text transform="matrix(1 0 0 1 -595.4251 379.1066)" style="font-family:'MyriadPro-Regular'; font-size:2.4825px;">Level 1</text>
	<g>
		<g>
			<polygon class="st23" points="-607.17,408.65 -607.17,412.28 -603.54,410.47 -603.54,406.84 			"/>
		</g>
		<polygon class="st24" points="-607.17,408.65 -607.17,412.28 -610.79,410.47 -610.79,406.84 		"/>
		<polygon class="st25" points="-607.17,408.65 -610.79,406.84 -607.17,405.03 -603.54,406.84 		"/>
	</g>
	<g>
		<g>
			<polygon class="st23" points="-581.54,411.26 -581.54,414.88 -577.92,413.07 -577.92,409.45 			"/>
		</g>
		<polygon class="st24" points="-581.54,411.26 -581.54,414.88 -585.17,413.07 -585.17,409.45 		"/>
		<polygon class="st25" points="-581.54,411.26 -585.17,409.45 -581.54,407.63 -577.92,409.45 		"/>
	</g>
	<rect x="-627.87" y="433.08" style="fill:none;" width="74.18" height="30.16"/>
	<text transform="matrix(1 0 0 1 -627.8734 436.3195)"><tspan x="0" y="0" style="font-family:'MyriadPro-Regular'; font-size:4.5653px;">Lorem</tspan><tspan x="12.25" y="0" style="font-family:'MyriadPro-Regular'; font-size:4.5653px; letter-spacing:5;"> </tspan><tspan x="18.46" y="0" style="font-family:'MyriadPro-Regular'; font-size:4.5653px;">ipsum</tspan><tspan x="30.26" y="0" style="font-family:'MyriadPro-Regular'; font-size:4.5653px; letter-spacing:5;"> </tspan><tspan x="36.47" y="0" style="font-family:'MyriadPro-Regular'; font-size:4.5653px;">dolor</tspan><tspan x="46.62" y="0" style="font-family:'MyriadPro-Regular'; font-size:4.5653px; letter-spacing:5;"> </tspan><tspan x="52.83" y="0" style="font-family:'MyriadPro-Regular'; font-size:4.5653px;">sit</tspan><tspan x="57.22" y="0" style="font-family:'MyriadPro-Regular'; font-size:4.5653px; letter-spacing:5;"> </tspan><tspan x="63.43" y="0" style="font-family:'MyriadPro-Regular'; font-size:4.5653px;">amet, </tspan><tspan x="0" y="5.48" style="font-family:'MyriadPro-Regular'; font-size:4.5653px;">consectetuer</tspan><tspan x="24.83" y="5.48" style="font-family:'MyriadPro-Regular'; font-size:4.5653px;"> </tspan><tspan x="26.49" y="5.48" style="font-family:'MyriadPro-Regular'; font-size:4.5653px;">adipiscing</tspan><tspan x="46" y="5.48" style="font-family:'MyriadPro-Regular'; font-size:4.5653px;"> </tspan><tspan x="47.66" y="5.48" style="font-family:'MyriadPro-Regular'; font-size:4.5653px;">elit,</tspan><tspan x="54.55" y="5.48" style="font-family:'MyriadPro-Regular'; font-size:4.5653px;"> </tspan><tspan x="56.21" y="5.48" style="font-family:'MyriadPro-Regular'; font-size:4.5653px;">sed</tspan><tspan x="62.88" y="5.48" style="font-family:'MyriadPro-Regular'; font-size:4.5653px;"> </tspan><tspan x="64.53" y="5.48" style="font-family:'MyriadPro-Regular'; font-size:4.5653px;">diam </tspan><tspan x="0" y="10.96" style="font-family:'MyriadPro-Regular'; font-size:4.5653px;">nonummy nibh euismod </tspan></text>
	<rect x="-627.87" y="514.66" style="fill:none;" width="74.18" height="30.16"/>
	<text transform="matrix(1 0 0 1 -627.8734 517.8973)"><tspan x="0" y="0" style="font-family:'MyriadPro-Regular'; font-size:4.5653px;">Lorem</tspan><tspan x="12.25" y="0" style="font-family:'MyriadPro-Regular'; font-size:4.5653px; letter-spacing:5;"> </tspan><tspan x="18.46" y="0" style="font-family:'MyriadPro-Regular'; font-size:4.5653px;">ipsum</tspan><tspan x="30.26" y="0" style="font-family:'MyriadPro-Regular'; font-size:4.5653px; letter-spacing:5;"> </tspan><tspan x="36.47" y="0" style="font-family:'MyriadPro-Regular'; font-size:4.5653px;">dolor</tspan><tspan x="46.62" y="0" style="font-family:'MyriadPro-Regular'; font-size:4.5653px; letter-spacing:5;"> </tspan><tspan x="52.83" y="0" style="font-family:'MyriadPro-Regular'; font-size:4.5653px;">sit</tspan><tspan x="57.22" y="0" style="font-family:'MyriadPro-Regular'; font-size:4.5653px; letter-spacing:5;"> </tspan><tspan x="63.43" y="0" style="font-family:'MyriadPro-Regular'; font-size:4.5653px;">amet, </tspan><tspan x="0" y="5.48" style="font-family:'MyriadPro-Regular'; font-size:4.5653px;">consectetuer</tspan><tspan x="24.83" y="5.48" style="font-family:'MyriadPro-Regular'; font-size:4.5653px;"> </tspan><tspan x="26.49" y="5.48" style="font-family:'MyriadPro-Regular'; font-size:4.5653px;">adipiscing</tspan><tspan x="46" y="5.48" style="font-family:'MyriadPro-Regular'; font-size:4.5653px;"> </tspan><tspan x="47.66" y="5.48" style="font-family:'MyriadPro-Regular'; font-size:4.5653px;">elit,</tspan><tspan x="54.55" y="5.48" style="font-family:'MyriadPro-Regular'; font-size:4.5653px;"> </tspan><tspan x="56.21" y="5.48" style="font-family:'MyriadPro-Regular'; font-size:4.5653px;">sed</tspan><tspan x="62.88" y="5.48" style="font-family:'MyriadPro-Regular'; font-size:4.5653px;"> </tspan><tspan x="64.53" y="5.48" style="font-family:'MyriadPro-Regular'; font-size:4.5653px;">diam </tspan><tspan x="0" y="10.96" style="font-family:'MyriadPro-Regular'; font-size:4.5653px;">nonummy nibh euismod </tspan></text>
	<rect x="-715.34" y="514.66" style="fill:none;" width="74.18" height="30.16"/>
	<text transform="matrix(1 0 0 1 -715.3433 517.8973)"><tspan x="0" y="0" style="font-family:'MyriadPro-Regular'; font-size:4.5653px;">Lorem</tspan><tspan x="12.25" y="0" style="font-family:'MyriadPro-Regular'; font-size:4.5653px; letter-spacing:5;"> </tspan><tspan x="18.46" y="0" style="font-family:'MyriadPro-Regular'; font-size:4.5653px;">ipsum</tspan><tspan x="30.26" y="0" style="font-family:'MyriadPro-Regular'; font-size:4.5653px; letter-spacing:5;"> </tspan><tspan x="36.47" y="0" style="font-family:'MyriadPro-Regular'; font-size:4.5653px;">dolor</tspan><tspan x="46.62" y="0" style="font-family:'MyriadPro-Regular'; font-size:4.5653px; letter-spacing:5;"> </tspan><tspan x="52.83" y="0" style="font-family:'MyriadPro-Regular'; font-size:4.5653px;">sit</tspan><tspan x="57.22" y="0" style="font-family:'MyriadPro-Regular'; font-size:4.5653px; letter-spacing:5;"> </tspan><tspan x="63.43" y="0" style="font-family:'MyriadPro-Regular'; font-size:4.5653px;">amet, </tspan><tspan x="0" y="5.48" style="font-family:'MyriadPro-Regular'; font-size:4.5653px;">consectetuer</tspan><tspan x="24.83" y="5.48" style="font-family:'MyriadPro-Regular'; font-size:4.5653px;"> </tspan><tspan x="26.49" y="5.48" style="font-family:'MyriadPro-Regular'; font-size:4.5653px;">adipiscing</tspan><tspan x="46" y="5.48" style="font-family:'MyriadPro-Regular'; font-size:4.5653px;"> </tspan><tspan x="47.66" y="5.48" style="font-family:'MyriadPro-Regular'; font-size:4.5653px;">elit,</tspan><tspan x="54.55" y="5.48" style="font-family:'MyriadPro-Regular'; font-size:4.5653px;"> </tspan><tspan x="56.21" y="5.48" style="font-family:'MyriadPro-Regular'; font-size:4.5653px;">sed</tspan><tspan x="62.88" y="5.48" style="font-family:'MyriadPro-Regular'; font-size:4.5653px;"> </tspan><tspan x="64.53" y="5.48" style="font-family:'MyriadPro-Regular'; font-size:4.5653px;">diam </tspan><tspan x="0" y="10.96" style="font-family:'MyriadPro-Regular'; font-size:4.5653px;">nonummy nibh euismod </tspan></text>
</g>
<rect x="-631.15" y="374.81" class="st16" width="79.91" height="53.98"/>
<g>
	<path class="st1" d="M-678.54,482.01"/>
	<g>
		<polygon class="st16" points="-709.5,476.77 -714.66,474.19 -709.5,471.61 -704.34,474.19 		"/>
		<polygon class="st16" points="-699.18,476.77 -704.34,474.19 -699.18,471.61 -694.02,474.19 		"/>
		<polygon class="st16" points="-688.86,476.77 -694.02,474.19 -688.86,471.61 -683.7,474.19 		"/>
		<polygon class="st16" points="-678.54,476.77 -683.7,474.19 -678.54,471.61 -673.38,474.19 		"/>
		<polygon class="st16" points="-668.22,476.77 -673.38,474.19 -668.22,471.61 -663.06,474.19 		"/>
		<polygon class="st16" points="-657.9,476.77 -663.06,474.19 -657.9,471.61 -652.74,474.19 		"/>
		<polygon class="st16" points="-704.34,479.35 -709.5,476.77 -704.34,474.19 -699.18,476.77 		"/>
		<polygon class="st16" points="-694.02,479.35 -699.18,476.77 -694.02,474.19 -688.86,476.77 		"/>
		<polygon class="st16" points="-683.7,479.35 -688.86,476.77 -683.7,474.19 -678.54,476.77 		"/>
		<polygon class="st16" points="-673.38,479.35 -678.54,476.77 -673.38,474.19 -668.22,476.77 		"/>
		<polygon class="st16" points="-663.06,479.35 -668.22,476.77 -663.06,474.19 -657.9,476.77 		"/>
		<polygon class="st16" points="-652.74,479.35 -657.9,476.77 -652.74,474.19 -647.58,476.77 		"/>
		<polygon class="st16" points="-709.5,481.93 -714.66,479.35 -709.5,476.77 -704.34,479.35 		"/>
		<polygon class="st16" points="-699.18,481.93 -704.34,479.35 -699.18,476.77 -694.02,479.35 		"/>
		<polygon class="st16" points="-688.86,481.93 -694.02,479.35 -688.86,476.77 -683.7,479.35 		"/>
		<polygon class="st16" points="-678.54,481.93 -683.7,479.35 -678.54,476.77 -673.38,479.35 		"/>
		<polygon class="st16" points="-668.22,481.93 -673.38,479.35 -668.22,476.77 -663.06,479.35 		"/>
		<polygon class="st16" points="-657.9,481.93 -663.06,479.35 -657.9,476.77 -652.74,479.35 		"/>
		<polygon class="st16" points="-704.34,484.51 -709.5,481.93 -704.34,479.35 -699.18,481.93 		"/>
		<polygon class="st16" points="-694.02,484.51 -699.18,481.93 -694.02,479.35 -688.86,481.93 		"/>
		<polygon class="st16" points="-683.7,484.51 -688.86,481.93 -683.7,479.35 -678.54,481.93 		"/>
		<polygon class="st16" points="-673.38,484.51 -678.54,481.93 -673.38,479.35 -668.22,481.93 		"/>
		<polygon class="st16" points="-663.06,484.51 -668.22,481.93 -663.06,479.35 -657.9,481.93 		"/>
		<polygon class="st16" points="-652.74,484.51 -657.9,481.93 -652.74,479.35 -647.58,481.93 		"/>
		<polygon class="st16" points="-709.5,487.09 -714.66,484.51 -709.5,481.93 -704.34,484.51 		"/>
		<polygon class="st16" points="-699.18,487.09 -704.34,484.51 -699.18,481.93 -694.02,484.51 		"/>
		<polygon class="st16" points="-688.86,487.09 -694.02,484.51 -688.86,481.93 -683.7,484.51 		"/>
		<polygon class="st16" points="-678.54,487.09 -683.7,484.51 -678.54,481.93 -673.38,484.51 		"/>
		<polygon class="st16" points="-668.22,487.09 -673.38,484.51 -668.22,481.93 -663.06,484.51 		"/>
		<polygon class="st16" points="-657.9,487.09 -663.06,484.51 -657.9,481.93 -652.74,484.51 		"/>
		<polygon class="st16" points="-704.34,489.67 -709.5,487.09 -704.34,484.51 -699.18,487.09 		"/>
		<polygon class="st16" points="-694.02,489.67 -699.18,487.09 -694.02,484.51 -688.86,487.09 		"/>
		<polygon class="st16" points="-683.7,489.67 -688.86,487.09 -683.7,484.51 -678.54,487.09 		"/>
		<polygon class="st16" points="-673.38,489.67 -678.54,487.09 -673.38,484.51 -668.22,487.09 		"/>
		<polygon class="st16" points="-663.06,489.67 -668.22,487.09 -663.06,484.51 -657.9,487.09 		"/>
		<polygon class="st16" points="-652.74,489.67 -657.9,487.09 -652.74,484.51 -647.58,487.09 		"/>
		<polygon class="st16" points="-709.5,492.25 -714.66,489.67 -709.5,487.09 -704.34,489.67 		"/>
		<polygon class="st16" points="-699.18,492.25 -704.34,489.67 -699.18,487.09 -694.02,489.67 		"/>
		<polygon class="st16" points="-688.86,492.25 -694.02,489.67 -688.86,487.09 -683.7,489.67 		"/>
		<polygon class="st16" points="-678.54,492.25 -683.7,489.67 -678.54,487.09 -673.38,489.67 		"/>
		<polygon class="st16" points="-668.22,492.25 -673.38,489.67 -668.22,487.09 -663.06,489.67 		"/>
		<polygon class="st16" points="-657.9,492.25 -663.06,489.67 -657.9,487.09 -652.74,489.67 		"/>
		<polygon class="st16" points="-704.34,494.83 -709.5,492.25 -704.34,489.67 -699.18,492.25 		"/>
		<polygon class="st16" points="-694.02,494.83 -699.18,492.25 -694.02,489.67 -688.86,492.25 		"/>
		<polygon class="st16" points="-683.7,494.83 -688.86,492.25 -683.7,489.67 -678.54,492.25 		"/>
		<polygon class="st16" points="-673.38,494.83 -678.54,492.25 -673.38,489.67 -668.22,492.25 		"/>
		<polygon class="st16" points="-663.06,494.83 -668.22,492.25 -663.06,489.67 -657.9,492.25 		"/>
		<polygon class="st16" points="-652.74,494.83 -657.9,492.25 -652.74,489.67 -647.58,492.25 		"/>
		<polygon class="st16" points="-709.5,497.41 -714.66,494.83 -709.5,492.25 -704.34,494.83 		"/>
		<polygon class="st16" points="-699.18,497.41 -704.34,494.83 -699.18,492.25 -694.02,494.83 		"/>
		<polygon class="st16" points="-688.86,497.41 -694.02,494.83 -688.86,492.25 -683.7,494.83 		"/>
		<polygon class="st16" points="-678.54,497.41 -683.7,494.83 -678.54,492.25 -673.38,494.83 		"/>
		<polygon class="st16" points="-668.22,497.41 -673.38,494.83 -668.22,492.25 -663.06,494.83 		"/>
		<polygon class="st16" points="-657.9,497.41 -663.06,494.83 -657.9,492.25 -652.74,494.83 		"/>
		<polygon class="st16" points="-704.34,499.99 -709.5,497.41 -704.34,494.83 -699.18,497.41 		"/>
		<polygon class="st16" points="-694.02,499.99 -699.18,497.41 -694.02,494.83 -688.86,497.41 		"/>
		<polygon class="st16" points="-683.7,499.99 -688.86,497.41 -683.7,494.83 -678.54,497.41 		"/>
		<polygon class="st16" points="-673.38,499.99 -678.54,497.41 -673.38,494.83 -668.22,497.41 		"/>
		<polygon class="st16" points="-663.06,499.99 -668.22,497.41 -663.06,494.83 -657.9,497.41 		"/>
		<polygon class="st16" points="-652.74,499.99 -657.9,497.41 -652.74,494.83 -647.58,497.41 		"/>
		<polygon class="st16" points="-709.5,502.57 -714.66,499.99 -709.5,497.41 -704.34,499.99 		"/>
		<polygon class="st16" points="-699.18,502.57 -704.34,499.99 -699.18,497.41 -694.02,499.99 		"/>
		<polygon class="st16" points="-688.86,502.57 -694.02,499.99 -688.86,497.41 -683.7,499.99 		"/>
		<polygon class="st16" points="-678.54,502.57 -683.7,499.99 -678.54,497.41 -673.38,499.99 		"/>
		<polygon class="st16" points="-668.22,502.57 -673.38,499.99 -668.22,497.41 -663.06,499.99 		"/>
		<polygon class="st16" points="-657.9,502.57 -663.06,499.99 -657.9,497.41 -652.74,499.99 		"/>
		<polygon class="st16" points="-704.34,505.15 -709.5,502.57 -704.34,499.99 -699.18,502.57 		"/>
		<polygon class="st16" points="-694.02,505.15 -699.18,502.57 -694.02,499.99 -688.86,502.57 		"/>
		<polygon class="st16" points="-683.7,505.15 -688.86,502.57 -683.7,499.99 -678.54,502.57 		"/>
		<polygon class="st16" points="-673.38,505.15 -678.54,502.57 -673.38,499.99 -668.22,502.57 		"/>
		<polygon class="st16" points="-663.06,505.15 -668.22,502.57 -663.06,499.99 -657.9,502.57 		"/>
		<polygon class="st16" points="-652.74,505.15 -657.9,502.57 -652.74,499.99 -647.58,502.57 		"/>
		<polygon class="st16" points="-709.5,507.73 -714.66,505.15 -709.5,502.57 -704.34,505.15 		"/>
		<polygon class="st16" points="-699.18,507.73 -704.34,505.15 -699.18,502.57 -694.02,505.15 		"/>
		<polygon class="st16" points="-688.86,507.73 -694.02,505.15 -688.86,502.57 -683.7,505.15 		"/>
		<polygon class="st16" points="-678.54,507.73 -683.7,505.15 -678.54,502.57 -673.38,505.15 		"/>
		<polygon class="st16" points="-668.22,507.73 -673.38,505.15 -668.22,502.57 -663.06,505.15 		"/>
		<polygon class="st16" points="-657.9,507.73 -663.06,505.15 -657.9,502.57 -652.74,505.15 		"/>
		<polygon class="st16" points="-647.58,476.77 -652.74,474.19 -647.58,471.61 -642.42,474.19 		"/>
		<polygon class="st16" points="-647.58,481.93 -652.74,479.35 -647.58,476.77 -642.42,479.35 		"/>
		<polygon class="st16" points="-647.58,487.09 -652.74,484.51 -647.58,481.93 -642.42,484.51 		"/>
		<polygon class="st16" points="-647.58,492.25 -652.74,489.67 -647.58,487.09 -642.42,489.67 		"/>
		<polygon class="st16" points="-647.58,497.41 -652.74,494.83 -647.58,492.25 -642.42,494.83 		"/>
		<polygon class="st16" points="-647.58,502.57 -652.74,499.99 -647.58,497.41 -642.42,499.99 		"/>
		<polygon class="st16" points="-647.58,507.73 -652.74,505.15 -647.58,502.57 -642.42,505.15 		"/>
	</g>
	<g>
		<circle cx="-713.45" cy="466.06" r="1.2"/>
		<circle cx="-705.69" cy="466.06" r="1.2"/>
		<circle cx="-697.93" cy="466.06" r="1.2"/>
		<circle cx="-690.17" cy="466.06" r="1.2"/>
		<circle cx="-682.42" cy="466.06" r="1.2"/>
		<circle cx="-674.66" cy="466.06" r="1.2"/>
		<circle cx="-666.9" cy="466.06" r="1.2"/>
		<circle cx="-659.14" cy="466.14" r="1.2"/>
		<circle class="st21" cx="-651.38" cy="466.06" r="1.2"/>
		<circle class="st21" cx="-643.62" cy="466.06" r="1.2"/>
		<line class="st22" x1="-713.45" y1="466.06" x2="-659.14" y2="466.06"/>
	</g>
	<text transform="matrix(1 0 0 1 -682.2747 461.0402)" style="font-family:'MyriadPro-Regular'; font-size:2.4825px;">Level 1</text>
	<g>
		<g>
			<polygon class="st23" points="-678.54,477.43 -678.54,481.06 -674.92,479.25 -674.92,475.62 			"/>
		</g>
		<polygon class="st24" points="-678.54,477.43 -678.54,481.06 -682.16,479.25 -682.16,475.62 		"/>
		<polygon class="st25" points="-678.54,477.43 -682.16,475.62 -678.54,473.81 -674.92,475.62 		"/>
	</g>
	<g>
		<g>
			<polygon class="st23" points="-668.39,493.19 -668.39,496.82 -664.77,495.01 -664.77,491.38 			"/>
		</g>
		<polygon class="st24" points="-668.39,493.19 -668.39,496.82 -672.02,495.01 -672.02,491.38 		"/>
		<polygon class="st25" points="-668.39,493.19 -672.02,491.38 -668.39,489.57 -664.77,491.38 		"/>
	</g>
</g>
<rect x="-718" y="456.74" class="st16" width="79.91" height="53.98"/>
<g>
	<path class="st1" d="M-591.69,482.01"/>
	<g>
		<polygon class="st16" points="-622.65,476.77 -627.81,474.19 -622.65,471.61 -617.49,474.19 		"/>
		<polygon class="st16" points="-612.33,476.77 -617.49,474.19 -612.33,471.61 -607.17,474.19 		"/>
		<polygon class="st16" points="-602.01,476.77 -607.17,474.19 -602.01,471.61 -596.85,474.19 		"/>
		<polygon class="st16" points="-591.69,476.77 -596.85,474.19 -591.69,471.61 -586.53,474.19 		"/>
		<polygon class="st16" points="-581.37,476.77 -586.53,474.19 -581.37,471.61 -576.21,474.19 		"/>
		<polygon class="st16" points="-571.05,476.77 -576.21,474.19 -571.05,471.61 -565.89,474.19 		"/>
		<polygon class="st16" points="-617.49,479.35 -622.65,476.77 -617.49,474.19 -612.33,476.77 		"/>
		<polygon class="st16" points="-607.17,479.35 -612.33,476.77 -607.17,474.19 -602.01,476.77 		"/>
		<polygon class="st16" points="-596.85,479.35 -602.01,476.77 -596.85,474.19 -591.69,476.77 		"/>
		<polygon class="st16" points="-586.53,479.35 -591.69,476.77 -586.53,474.19 -581.37,476.77 		"/>
		<polygon class="st16" points="-576.21,479.35 -581.37,476.77 -576.21,474.19 -571.05,476.77 		"/>
		<polygon class="st16" points="-565.89,479.35 -571.05,476.77 -565.89,474.19 -560.73,476.77 		"/>
		<polygon class="st16" points="-622.65,481.93 -627.81,479.35 -622.65,476.77 -617.49,479.35 		"/>
		<polygon class="st16" points="-612.33,481.93 -617.49,479.35 -612.33,476.77 -607.17,479.35 		"/>
		<polygon class="st16" points="-602.01,481.93 -607.17,479.35 -602.01,476.77 -596.85,479.35 		"/>
		<polygon class="st16" points="-591.69,481.93 -596.85,479.35 -591.69,476.77 -586.53,479.35 		"/>
		<polygon class="st16" points="-581.37,481.93 -586.53,479.35 -581.37,476.77 -576.21,479.35 		"/>
		<polygon class="st16" points="-571.05,481.93 -576.21,479.35 -571.05,476.77 -565.89,479.35 		"/>
		<polygon class="st16" points="-617.49,484.51 -622.65,481.93 -617.49,479.35 -612.33,481.93 		"/>
		<polygon class="st16" points="-607.17,484.51 -612.33,481.93 -607.17,479.35 -602.01,481.93 		"/>
		<polygon class="st16" points="-596.85,484.51 -602.01,481.93 -596.85,479.35 -591.69,481.93 		"/>
		<polygon class="st16" points="-586.53,484.51 -591.69,481.93 -586.53,479.35 -581.37,481.93 		"/>
		<polygon class="st16" points="-576.21,484.51 -581.37,481.93 -576.21,479.35 -571.05,481.93 		"/>
		<polygon class="st16" points="-565.89,484.51 -571.05,481.93 -565.89,479.35 -560.73,481.93 		"/>
		<polygon class="st16" points="-622.65,487.09 -627.81,484.51 -622.65,481.93 -617.49,484.51 		"/>
		<polygon class="st16" points="-612.33,487.09 -617.49,484.51 -612.33,481.93 -607.17,484.51 		"/>
		<polygon class="st16" points="-602.01,487.09 -607.17,484.51 -602.01,481.93 -596.85,484.51 		"/>
		<polygon class="st16" points="-591.69,487.09 -596.85,484.51 -591.69,481.93 -586.53,484.51 		"/>
		<polygon class="st16" points="-581.37,487.09 -586.53,484.51 -581.37,481.93 -576.21,484.51 		"/>
		<polygon class="st16" points="-571.05,487.09 -576.21,484.51 -571.05,481.93 -565.89,484.51 		"/>
		<polygon class="st16" points="-617.49,489.67 -622.65,487.09 -617.49,484.51 -612.33,487.09 		"/>
		<polygon class="st16" points="-607.17,489.67 -612.33,487.09 -607.17,484.51 -602.01,487.09 		"/>
		<polygon class="st16" points="-596.85,489.67 -602.01,487.09 -596.85,484.51 -591.69,487.09 		"/>
		<polygon class="st16" points="-586.53,489.67 -591.69,487.09 -586.53,484.51 -581.37,487.09 		"/>
		<polygon class="st16" points="-576.21,489.67 -581.37,487.09 -576.21,484.51 -571.05,487.09 		"/>
		<polygon class="st16" points="-565.89,489.67 -571.05,487.09 -565.89,484.51 -560.73,487.09 		"/>
		<polygon class="st16" points="-622.65,492.25 -627.81,489.67 -622.65,487.09 -617.49,489.67 		"/>
		<polygon class="st16" points="-612.33,492.25 -617.49,489.67 -612.33,487.09 -607.17,489.67 		"/>
		<polygon class="st16" points="-602.01,492.25 -607.17,489.67 -602.01,487.09 -596.85,489.67 		"/>
		<polygon class="st16" points="-591.69,492.25 -596.85,489.67 -591.69,487.09 -586.53,489.67 		"/>
		<polygon class="st16" points="-581.37,492.25 -586.53,489.67 -581.37,487.09 -576.21,489.67 		"/>
		<polygon class="st16" points="-571.05,492.25 -576.21,489.67 -571.05,487.09 -565.89,489.67 		"/>
		<polygon class="st16" points="-617.49,494.83 -622.65,492.25 -617.49,489.67 -612.33,492.25 		"/>
		<polygon class="st16" points="-607.17,494.83 -612.33,492.25 -607.17,489.67 -602.01,492.25 		"/>
		<polygon class="st16" points="-596.85,494.83 -602.01,492.25 -596.85,489.67 -591.69,492.25 		"/>
		<polygon class="st16" points="-586.53,494.83 -591.69,492.25 -586.53,489.67 -581.37,492.25 		"/>
		<polygon class="st16" points="-576.21,494.83 -581.37,492.25 -576.21,489.67 -571.05,492.25 		"/>
		<polygon class="st16" points="-565.89,494.83 -571.05,492.25 -565.89,489.67 -560.73,492.25 		"/>
		<polygon class="st16" points="-622.65,497.41 -627.81,494.83 -622.65,492.25 -617.49,494.83 		"/>
		<polygon class="st16" points="-612.33,497.41 -617.49,494.83 -612.33,492.25 -607.17,494.83 		"/>
		<polygon class="st16" points="-602.01,497.41 -607.17,494.83 -602.01,492.25 -596.85,494.83 		"/>
		<polygon class="st16" points="-591.69,497.41 -596.85,494.83 -591.69,492.25 -586.53,494.83 		"/>
		<polygon class="st16" points="-581.37,497.41 -586.53,494.83 -581.37,492.25 -576.21,494.83 		"/>
		<polygon class="st16" points="-571.05,497.41 -576.21,494.83 -571.05,492.25 -565.89,494.83 		"/>
		<polygon class="st16" points="-617.49,499.99 -622.65,497.41 -617.49,494.83 -612.33,497.41 		"/>
		<polygon class="st16" points="-607.17,499.99 -612.33,497.41 -607.17,494.83 -602.01,497.41 		"/>
		<polygon class="st16" points="-596.85,499.99 -602.01,497.41 -596.85,494.83 -591.69,497.41 		"/>
		<polygon class="st16" points="-586.53,499.99 -591.69,497.41 -586.53,494.83 -581.37,497.41 		"/>
		<polygon class="st16" points="-576.21,499.99 -581.37,497.41 -576.21,494.83 -571.05,497.41 		"/>
		<polygon class="st16" points="-565.89,499.99 -571.05,497.41 -565.89,494.83 -560.73,497.41 		"/>
		<polygon class="st16" points="-622.65,502.57 -627.81,499.99 -622.65,497.41 -617.49,499.99 		"/>
		<polygon class="st16" points="-612.33,502.57 -617.49,499.99 -612.33,497.41 -607.17,499.99 		"/>
		<polygon class="st16" points="-602.01,502.57 -607.17,499.99 -602.01,497.41 -596.85,499.99 		"/>
		<polygon class="st16" points="-591.69,502.57 -596.85,499.99 -591.69,497.41 -586.53,499.99 		"/>
		<polygon class="st16" points="-581.37,502.57 -586.53,499.99 -581.37,497.41 -576.21,499.99 		"/>
		<polygon class="st16" points="-571.05,502.57 -576.21,499.99 -571.05,497.41 -565.89,499.99 		"/>
		<polygon class="st16" points="-617.49,505.15 -622.65,502.57 -617.49,499.99 -612.33,502.57 		"/>
		<polygon class="st16" points="-607.17,505.15 -612.33,502.57 -607.17,499.99 -602.01,502.57 		"/>
		<polygon class="st16" points="-596.85,505.15 -602.01,502.57 -596.85,499.99 -591.69,502.57 		"/>
		<polygon class="st16" points="-586.53,505.15 -591.69,502.57 -586.53,499.99 -581.37,502.57 		"/>
		<polygon class="st16" points="-576.21,505.15 -581.37,502.57 -576.21,499.99 -571.05,502.57 		"/>
		<polygon class="st16" points="-565.89,505.15 -571.05,502.57 -565.89,499.99 -560.73,502.57 		"/>
		<polygon class="st16" points="-622.65,507.73 -627.81,505.15 -622.65,502.57 -617.49,505.15 		"/>
		<polygon class="st16" points="-612.33,507.73 -617.49,505.15 -612.33,502.57 -607.17,505.15 		"/>
		<polygon class="st16" points="-602.01,507.73 -607.17,505.15 -602.01,502.57 -596.85,505.15 		"/>
		<polygon class="st16" points="-591.69,507.73 -596.85,505.15 -591.69,502.57 -586.53,505.15 		"/>
		<polygon class="st16" points="-581.37,507.73 -586.53,505.15 -581.37,502.57 -576.21,505.15 		"/>
		<polygon class="st16" points="-571.05,507.73 -576.21,505.15 -571.05,502.57 -565.89,505.15 		"/>
		<polygon class="st16" points="-560.73,476.77 -565.89,474.19 -560.73,471.61 -555.57,474.19 		"/>
		<polygon class="st16" points="-560.73,481.93 -565.89,479.35 -560.73,476.77 -555.57,479.35 		"/>
		<polygon class="st16" points="-560.73,487.09 -565.89,484.51 -560.73,481.93 -555.57,484.51 		"/>
		<polygon class="st16" points="-560.73,492.25 -565.89,489.67 -560.73,487.09 -555.57,489.67 		"/>
		<polygon class="st16" points="-560.73,497.41 -565.89,494.83 -560.73,492.25 -555.57,494.83 		"/>
		<polygon class="st16" points="-560.73,502.57 -565.89,499.99 -560.73,497.41 -555.57,499.99 		"/>
		<polygon class="st16" points="-560.73,507.73 -565.89,505.15 -560.73,502.57 -555.57,505.15 		"/>
	</g>
	<g>
		<circle cx="-626.6" cy="466.06" r="1.2"/>
		<circle cx="-618.84" cy="466.06" r="1.2"/>
		<circle cx="-611.08" cy="466.06" r="1.2"/>
		<circle cx="-603.32" cy="466.06" r="1.2"/>
		<circle cx="-595.57" cy="466.06" r="1.2"/>
		<circle cx="-587.81" cy="466.06" r="1.2"/>
		<circle cx="-580.05" cy="466.06" r="1.2"/>
		<circle cx="-572.29" cy="466.14" r="1.2"/>
		<circle class="st21" cx="-564.53" cy="466.06" r="1.2"/>
		<circle class="st21" cx="-556.77" cy="466.06" r="1.2"/>
		<line class="st22" x1="-626.6" y1="466.06" x2="-572.29" y2="466.06"/>
	</g>
	<text transform="matrix(1 0 0 1 -595.4251 461.0402)" style="font-family:'MyriadPro-Regular'; font-size:2.4825px;">Level 1</text>
	<g>
		<g>
			<polygon class="st23" points="-607.17,490.59 -607.17,494.21 -603.54,492.4 -603.54,488.77 			"/>
		</g>
		<polygon class="st24" points="-607.17,490.59 -607.17,494.21 -610.79,492.4 -610.79,488.77 		"/>
		<polygon class="st25" points="-607.17,490.59 -610.79,488.77 -607.17,486.96 -603.54,488.77 		"/>
	</g>
	<g>
		<g>
			<polygon class="st23" points="-581.54,493.19 -581.54,496.82 -577.92,495.01 -577.92,491.38 			"/>
		</g>
		<polygon class="st24" points="-581.54,493.19 -581.54,496.82 -585.17,495.01 -585.17,491.38 		"/>
		<polygon class="st25" points="-581.54,493.19 -585.17,491.38 -581.54,489.57 -577.92,491.38 		"/>
	</g>
</g>
<rect x="-631.15" y="456.74" class="st16" width="79.91" height="53.98"/>
<g>
	<text transform="matrix(1 0 0 1 -223.6565 775.9542)"><tspan x="0" y="0" style="font-family:'MyriadPro-Regular'; font-size:9.6673px;">00/00/2020</tspan><tspan x="0" y="11.6" style="font-family:'MyriadPro-Regular'; font-size:9.6673px;">00/00/2020</tspan><tspan x="0" y="23.2" style="font-family:'MyriadPro-Regular'; font-size:9.6673px;">00/00/2020</tspan><tspan x="0" y="34.8" style="font-family:'MyriadPro-Regular'; font-size:9.6673px;">00/00/2020</tspan></text>
	<text transform="matrix(1 0 0 1 -166.5625 775.9542)"><tspan x="0" y="0" style="font-family:'MyriadPro-Regular'; font-size:9.6673px;">321321321</tspan><tspan x="0" y="11.6" style="font-family:'MyriadPro-Regular'; font-size:9.6673px;">321321321</tspan><tspan x="0" y="23.2" style="font-family:'MyriadPro-Regular'; font-size:9.6673px;">21321321</tspan><tspan x="0" y="34.8" style="font-family:'MyriadPro-Regular'; font-size:9.6673px;">2313213</tspan></text>
	<text transform="matrix(1 0 0 1 -186.3948 763.2491)" style="font-family:'MyriadPro-Regular'; font-size:4.5674px;">Date</text>
	<text transform="matrix(1 0 0 1 -166.459 763.2491)" style="font-family:'MyriadPro-Regular'; font-size:4.5674px;">Highest Score</text>
</g>
<rect x="-823.07" y="672.2" class="st11" width="376.21" height="211.62"/>
<rect x="-823.07" y="672.2" class="st11" width="376.21" height="15.31"/>
<text transform="matrix(1 0 0 1 -817.2665 681.6133)" style="font-family:'MyriadPro-Regular'; font-size:7.9651px;">Logo</text>
<text transform="matrix(1 0 0 1 -531.9863 681.6133)" style="font-family:'MyriadPro-Regular'; font-size:6.1333px;">Login | Signup | Hi, $userName</text>
<rect x="-823.07" y="942.85" class="st11" width="376.21" height="211.62"/>
<rect x="-823.07" y="942.85" class="st11" width="376.21" height="15.31"/>
<text transform="matrix(1 0 0 1 -817.2665 952.2628)" style="font-family:'MyriadPro-Regular'; font-size:7.9651px;">Logo</text>
<text transform="matrix(1 0 0 1 -531.9863 952.2628)" style="font-family:'MyriadPro-Regular'; font-size:6.1333px;">Login | Signup | Hi, $userName</text>
<rect x="-426.75" y="672.2" class="st11" width="376.21" height="211.62"/>
<rect x="-426.75" y="672.2" class="st11" width="376.21" height="15.31"/>
<text transform="matrix(1 0 0 1 -420.9482 681.6133)" style="font-family:'MyriadPro-Regular'; font-size:7.9651px;">Logo</text>
<text transform="matrix(1 0 0 1 -135.6679 681.6133)" style="font-family:'MyriadPro-Regular'; font-size:6.1333px;">Login | Signup | Hi, $userName</text>
<rect x="-426.75" y="942.85" class="st11" width="376.21" height="211.62"/>
<rect x="-426.75" y="942.85" class="st11" width="376.21" height="15.31"/>
<text transform="matrix(1 0 0 1 -420.9482 952.2628)" style="font-family:'MyriadPro-Regular'; font-size:7.9651px;">Logo</text>
<text transform="matrix(1 0 0 1 -135.6679 952.2628)" style="font-family:'MyriadPro-Regular'; font-size:6.1333px;">Login | Signup | Hi, $userName</text>
<text transform="matrix(1 0 0 1 -821.2171 662.5037)" style="font-family:'MyriadPro-Regular'; font-size:12.7144px;">Login / Signup</text>
<text transform="matrix(1 0 0 1 -822.6849 934.9709)" style="font-family:'MyriadPro-Regular'; font-size:12.7144px;">Instructions</text>
<text transform="matrix(1 0 0 1 -422.7839 662.5037)" style="font-family:'MyriadPro-Regular'; font-size:12.7144px;">User Details</text>
<text transform="matrix(1 0 0 1 -426.1004 934.9712)" style="font-family:'MyriadPro-Regular'; font-size:12.7144px;">Top 10</text>
<text transform="matrix(1 0 0 1 -253.9153 372.1886)"><tspan x="0" y="0" style="font-family:'MyriadPro-Regular'; font-size:10.6047px;">Top 10</tspan><tspan x="-10.99" y="12.73" style="font-family:'MyriadPro-Regular'; font-size:10.6047px;">High Scores</tspan></text>
<g>
	<text transform="matrix(1 0 0 1 -278.4759 411.8292)"><tspan x="0" y="0" style="font-family:'MyriadPro-Regular'; font-size:9.6673px;">$userName1</tspan><tspan x="0" y="11.6" style="font-family:'MyriadPro-Regular'; font-size:9.6673px;">$userName2</tspan><tspan x="0" y="23.2" style="font-family:'MyriadPro-Regular'; font-size:9.6673px;">$userName3</tspan><tspan x="0" y="34.8" style="font-family:'MyriadPro-Regular'; font-size:9.6673px;">$userName4</tspan><tspan x="0" y="46.4" style="font-family:'MyriadPro-Regular'; font-size:9.6673px;">$userName5</tspan><tspan x="0" y="58" style="font-family:'MyriadPro-Regular'; font-size:9.6673px;">$userName6</tspan><tspan x="0" y="69.6" style="font-family:'MyriadPro-Regular'; font-size:9.6673px;">$userName7</tspan><tspan x="0" y="81.21" style="font-family:'MyriadPro-Regular'; font-size:9.6673px;">$userName8</tspan><tspan x="0" y="92.81" style="font-family:'MyriadPro-Regular'; font-size:9.6673px;">$userName9</tspan><tspan x="0" y="104.41" style="font-family:'MyriadPro-Regular'; font-size:9.6673px;">$userName10</tspan></text>
	<text transform="matrix(1 0 0 1 -300.7308 411.8292)"><tspan x="0" y="0" style="font-family:'MyriadPro-Regular'; font-size:9.6673px;">1st</tspan><tspan x="-3.79" y="11.6" style="font-family:'MyriadPro-Regular'; font-size:9.6673px;">2nd</tspan><tspan x="-1.58" y="23.2" style="font-family:'MyriadPro-Regular'; font-size:9.6673px;">3rd</tspan><tspan x="-1.54" y="34.8" style="font-family:'MyriadPro-Regular'; font-size:9.6673px;">4th</tspan><tspan x="-1.54" y="46.4" style="font-family:'MyriadPro-Regular'; font-size:9.6673px;">5th</tspan><tspan x="-1.54" y="58" style="font-family:'MyriadPro-Regular'; font-size:9.6673px;">6th</tspan><tspan x="-1.54" y="69.6" style="font-family:'MyriadPro-Regular'; font-size:9.6673px;">7th</tspan><tspan x="-1.54" y="81.21" style="font-family:'MyriadPro-Regular'; font-size:9.6673px;">8th</tspan><tspan x="-1.54" y="92.81" style="font-family:'MyriadPro-Regular'; font-size:9.6673px;">9th</tspan><tspan x="-6.5" y="104.41" style="font-family:'MyriadPro-Regular'; font-size:9.6673px;">10th</tspan></text>
	<text transform="matrix(1 0 0 1 -214.9818 411.8292)"><tspan x="0" y="0" style="font-family:'MyriadPro-Regular'; font-size:9.6673px;">321321321</tspan><tspan x="0" y="11.6" style="font-family:'MyriadPro-Regular'; font-size:9.6673px;">321321321</tspan><tspan x="0" y="23.2" style="font-family:'MyriadPro-Regular'; font-size:9.6673px;">21321321</tspan><tspan x="0" y="34.8" style="font-family:'MyriadPro-Regular'; font-size:9.6673px;">2313213</tspan><tspan x="0" y="46.4" style="font-family:'MyriadPro-Regular'; font-size:9.6673px;">2123213</tspan><tspan x="0" y="58" style="font-family:'MyriadPro-Regular'; font-size:9.6673px;">1213213</tspan><tspan x="0" y="69.6" style="font-family:'MyriadPro-Regular'; font-size:9.6673px;">321321</tspan><tspan x="0" y="81.21" style="font-family:'MyriadPro-Regular'; font-size:9.6673px;">321121</tspan><tspan x="0" y="92.81" style="font-family:'MyriadPro-Regular'; font-size:9.6673px;">213213</tspan><tspan x="0" y="104.41" style="font-family:'MyriadPro-Regular'; font-size:9.6673px;">12321</tspan></text>
	<text transform="matrix(1 0 0 1 -304.181 399.1241)" style="font-family:'MyriadPro-Regular'; font-size:4.5674px;">Position</text>
	<text transform="matrix(1 0 0 1 -278.1234 399.1241)" style="font-family:'MyriadPro-Regular'; font-size:4.5674px;">Name</text>
	<text transform="matrix(1 0 0 1 -214.8782 399.1241)" style="font-family:'MyriadPro-Regular'; font-size:4.5674px;">Highest Score</text>
</g>
<path class="st1" d="M-677.99,853.97h-74.82c-2.85,0-5.17-2.31-5.17-5.17V721.61c0-2.85,2.31-5.17,5.17-5.17h74.82
	c2.85,0,5.17,2.31,5.17,5.17v127.19C-672.82,851.66-675.13,853.97-677.99,853.97z"/>
<text transform="matrix(1 0 0 1 -726.2888 735.8921)" style="font-family:'MyriadPro-Semibold'; font-size:9.9299px;">Logo</text>
<rect x="-746.97" y="751.4" class="st21" width="63.14" height="9.47"/>
<g>
	<text transform="matrix(1 0 0 1 -744.5215 758.0567)" style="fill:#B5B5B6; font-family:'MyriadPro-Regular'; font-size:6px;">email</text>
</g>
<rect x="-746.97" y="770.09" class="st21" width="63.14" height="9.47"/>
<path class="st21" d="M-701.21,801.07h-28.36c-1.7,0-3.08-1.38-3.08-3.08v-3.31c0-1.7,1.38-3.08,3.08-3.08h28.36
	c1.7,0,3.08,1.38,3.08,3.08v3.31C-698.14,799.69-699.51,801.07-701.21,801.07z"/>
<g>
	<text transform="matrix(1 0 0 1 -744.5215 776.7516)" style="fill:#B5B5B6; font-family:'MyriadPro-Regular'; font-size:6px;">password</text>
</g>
<text transform="matrix(1 0 0 1 -721.54 797.8053)" style="font-family:'MyriadPro-Semibold'; font-size:5px;">Login</text>
<text transform="matrix(1 0 0 1 -747.9854 833.4394)"><tspan x="0" y="0" style="font-family:'MyriadPro-Regular'; font-size:5px;">You dont have an account yet?</tspan><tspan x="24.28" y="7" style="font-family:'MyriadPro-Semibold'; font-size:5px;">Signup!</tspan></text>
<path class="st1" d="M-505.12,853.97h-74.82c-2.85,0-5.17-2.31-5.17-5.17V721.61c0-2.85,2.31-5.17,5.17-5.17h74.82
	c2.85,0,5.17,2.31,5.17,5.17v127.19C-499.96,851.66-502.27,853.97-505.12,853.97z"/>
<text transform="matrix(1 0 0 1 -553.4261 735.8921)" style="font-family:'MyriadPro-Semibold'; font-size:9.9299px;">Logo</text>
<rect x="-574.1" y="751.4" class="st21" width="63.14" height="9.47"/>
<g>
	<text transform="matrix(1 0 0 1 -571.6589 758.0567)" style="fill:#B5B5B6; font-family:'MyriadPro-Regular'; font-size:6px;">email</text>
</g>
<rect x="-574.1" y="769.09" class="st21" width="63.14" height="9.47"/>
<path class="st21" d="M-528.35,821.07h-28.36c-1.7,0-3.08-1.38-3.08-3.08v-3.31c0-1.7,1.38-3.08,3.08-3.08h28.36
	c1.7,0,3.08,1.38,3.08,3.08v3.31C-525.27,819.69-526.65,821.07-528.35,821.07z"/>
<g>
	<text transform="matrix(1 0 0 1 -571.6589 775.7516)" style="fill:#B5B5B6; font-family:'MyriadPro-Regular'; font-size:6px;">password</text>
</g>
<rect x="-574.1" y="783.57" class="st21" width="63.14" height="9.47"/>
<g>
	<text transform="matrix(1 0 0 1 -571.6589 790.2245)" style="fill:#B5B5B6; font-family:'MyriadPro-Regular'; font-size:6px;">confirm password</text>
</g>
<text transform="matrix(1 0 0 1 -550.4606 817.8053)" style="font-family:'MyriadPro-Semibold'; font-size:5px;">SignUp</text>
<text transform="matrix(1 0 0 1 -573.4772 833.4394)"><tspan x="0" y="0" style="font-family:'MyriadPro-Regular'; font-size:5px;">You already have an account?</tspan><tspan x="24.17" y="7" style="font-family:'MyriadPro-Semibold'; font-size:5px;">Login!</tspan></text>
<polygon class="st26" points="-615.74,768.5 -634.04,757.93 -634.04,770.93 -660.96,770.93 -660.96,788.13 -634.04,788.13 
	-634.04,800.2 -615.74,789.64 -597.43,779.07 "/>
<g>
	<path class="st27" d="M324.56,142.29l-22.61,13.05v26.11l22.61,13.05l22.61-13.05v-26.11L324.56,142.29z M341.11,177.95
		l-16.55,9.56l-16.55-9.56v-19.11l16.55-9.56l16.55,9.56V177.95z"/>
	<path class="st27" d="M296.22,155.34l-22.61-13.05L251,155.34v65.94l6.06-3.5v-58.94l16.55-9.56l16.55,9.56 M257.06,185.13
		l16.55-9.56v-7L251,181.63"/>
	<path class="st27" d="M245.27,194.2v-26.11l-22.61-13.05l-22.61,13.05v26.11l6.06-3.5v-19.11l16.55-9.56l16.55,9.56v19.11
		L245.27,194.2z"/>
	<path class="st27" d="M464.29,156.87l13.13-7.58l16.55,9.56l6.06-3.5l-22.61-13.05l-22.61,13.05l0.08,3.09l36.49,21.07l-13.96,8.01
		l-16.55-9.56l-6.06,3.5l22.61,13.05l22.61-13.05l0.02-3.95L464.29,156.87z"/>
	<path class="st27" d="M403.86,155.34v26.11l22.61,13.05l22.61-13.05v-26.11l-6.06,3.5v19.11l-16.55,9.56l-16.55-9.56v-19.11
		L403.86,155.34z"/>
	<path class="st27" d="M392.07,177.95l-16.55,9.56l-16.55-9.56v-19.11l16.55-9.56l16.55,9.56l6.06-3.5l-22.61-13.05l-22.61,13.05
		v26.11l22.61,13.05l22.61-13.05L392.07,177.95z"/>
	<g>
		<polygon class="st28" points="324.56,168.57 324.56,182.85 337.63,175.72 337.63,161.43 		"/>
	</g>
	<polygon class="st29" points="324.56,168.57 324.56,182.85 311.5,175.72 311.5,161.43 	"/>
	<polygon class="st30" points="324.56,168.57 311.5,161.43 324.56,154.3 337.63,161.43 	"/>
</g>
</svg>
