<?xml version="1.0" encoding="utf-8"?>
<!-- Generator: Adobe Illustrator 24.2.1, SVG Export Plug-In . SVG Version: 6.00 Build 0)  -->
<svg version="1.1" id="Layer_1" xmlns="http://www.w3.org/2000/svg" xmlns:xlink="http://www.w3.org/1999/xlink" x="0px" y="0px"
	 viewBox="0 0 300 100" style="enable-background:new 0 0 300 100;" xml:space="preserve">
<style type="text/css">
	.st0{fill:#339999;}
	.st1{fill:#983435;}
	.st2{fill:#EE3C39;}
	.st3{fill:#F16667;}
</style>
<g>
	<path class="st0" d="M125.07,10.92l-22.38,12.92v25.84l22.38,12.92l22.38-12.92V23.84L125.07,10.92z M141.45,46.21l-16.38,9.46
		l-16.38-9.46V27.3l16.38-9.46l16.38,9.46V46.21z"/>
	<path class="st0" d="M97.02,23.84L74.65,10.92L52.27,23.84v65.25l6-3.46V27.3l16.38-9.46l16.38,9.46 M58.27,53.31l16.38-9.46v-6.93
		L52.27,49.85"/>
	<path class="st0" d="M46.6,62.28V36.45L24.23,23.53L1.85,36.45v25.84l6-3.46V39.91l16.38-9.46l16.38,9.46v18.91L46.6,62.28z"/>
	<path class="st0" d="M263.34,25.34l12.99-7.5l16.38,9.46l6-3.46l-22.38-12.92l-22.38,12.92l0.08,3.06l36.11,20.85l-13.81,7.93
		l-16.38-9.46l-6,3.46l22.38,12.92l22.38-12.92l0.02-3.9L263.34,25.34z"/>
	<path class="st0" d="M203.54,23.84v25.84l22.38,12.92l22.38-12.92V23.84l-6,3.46v18.91l-16.38,9.46l-16.38-9.46V27.3L203.54,23.84z
		"/>
	<path class="st0" d="M191.87,46.21l-16.38,9.46l-16.38-9.46V27.3l16.38-9.46l16.38,9.46l6-3.46l-22.38-12.92l-22.38,12.92v25.84
		l22.38,12.92l22.38-12.92L191.87,46.21z"/>
	<g>
		<polygon class="st1" points="125.07,36.92 125.07,51.06 138,43.99 138,29.86 		"/>
	</g>
	<polygon class="st2" points="125.07,36.92 125.07,51.06 112.14,43.99 112.14,29.86 	"/>
	<polygon class="st3" points="125.07,36.92 112.14,29.86 125.07,22.8 138,29.86 	"/>
</g>
</svg>
