<?xml version="1.0" encoding="utf-8"?>
<!-- Generator: Adobe Illustrator 24.2.1, SVG Export Plug-In . SVG Version: 6.00 Build 0)  -->
<svg version="1.1" id="Layer_1" xmlns="http://www.w3.org/2000/svg" xmlns:xlink="http://www.w3.org/1999/xlink" x="0px" y="0px"
	 viewBox="0 0 300 100" style="enable-background:new 0 0 300 100;" xml:space="preserve">
<style type="text/css">
	.st0{fill:#339999;}
	.st1{fill:#983435;}
	.st2{fill:#EE3C39;}
	.st3{fill:#F16667;}
</style>
<g>
	<path class="st0" d="M125.1,10.9l-22.4,12.9v25.8l22.4,12.9l22.4-12.9V23.8L125.1,10.9z M141.4,46.2l-16.4,9.5l-16.4-9.5V27.3
		l16.4-9.5l16.4,9.5V46.2z"/>
	<path class="st0" d="M97,23.8L74.7,10.9L52.3,23.8v65.2l6-3.5V27.3l16.4-9.5L91,27.3 M58.3,53.3l16.4-9.5v-6.9L52.3,49.8"/>
	<path class="st0" d="M46.6,49.7V23.8L24.2,10.9L1.9,23.8v25.8l6-3.5V27.3l16.4-9.5l16.4,9.5v18.9L46.6,49.7z"/>
	<path class="st0" d="M263.3,25.3l13-7.5l16.4,9.5l6-3.5l-22.4-12.9l-22.4,12.9l0.1,3.1l36.1,20.9l-13.8,7.9l-16.4-9.5l-6,3.5
		l22.4,12.9l22.4-12.9l0-3.9L263.3,25.3z"/>
	<path class="st0" d="M203.5,23.8v25.8l22.4,12.9l22.4-12.9V23.8l-6,3.5v18.9l-16.4,9.5l-16.4-9.5V27.3L203.5,23.8z"/>
	<path class="st0" d="M191.9,46.2l-16.4,9.5l-16.4-9.5V27.3l16.4-9.5l16.4,9.5l6-3.5l-22.4-12.9l-22.4,12.9v25.8l22.4,12.9
		l22.4-12.9L191.9,46.2z"/>
	<g>
		<polygon class="st1" points="125.1,36.9 125.1,51.1 138,44 138,29.9 		"/>
	</g>
	<polygon class="st2" points="125.1,36.9 125.1,51.1 112.1,44 112.1,29.9 	"/>
	<polygon class="st3" points="125.1,36.9 112.1,29.9 125.1,22.8 138,29.9 	"/>
</g>
</svg>
