<?xml version="1.0" encoding="utf-8"?>
<!-- Generator: Adobe Illustrator 24.2.1, SVG Export Plug-In . SVG Version: 6.00 Build 0)  -->
<svg version="1.1" xmlns="http://www.w3.org/2000/svg" xmlns:xlink="http://www.w3.org/1999/xlink" x="0px" y="0px"
	 viewBox="0 0 80 40" style="enable-background:new 0 0 80 40;" xml:space="preserve">
<style type="text/css">
	.st0{fill:#0B5159;}
	.st1{opacity:0.1;fill:#0B5159;enable-background:new    ;}
	.st2{fill:none;}
	.st3{display:none;}
	.st4{display:inline;fill:#CC6699;}
	.st5{display:inline;}
</style>
<g id="Layer_1">
	<path class="st0" d="M40,0L0,20l40,20l40-20L40,0z M1.8,20L40,0.9L78.2,20L40,39.1L1.8,20z"/>
	<path class="st1" d="M1.8,20L40,0.9L78.2,20L40,39.1L1.8,20z"/>
	<path class="st2" d="M40,0L0,20l40,20l40-20L40,0z"/>
	<g id="Layer_2_1_" class="st3">
		<path class="st4" d="M40,0L0,20l40,20l40-20L40,0z"/>
	</g>
</g>
<g id="Layer_2" class="st3">
	<g id="UHcHBZ.tif" class="st5">
		
			<image style="overflow:visible;enable-background:new    ;" width="331" height="133" id="Layer_0_1_" xlink:href="2B00D9C5C9E22A1C.png"  transform="matrix(0.7246 0 0 0.7246 -257.6178 -15.8591)">
		</image>
	</g>
</g>
</svg>
